<svg width="375" height="192" viewBox="0 0 375 192" fill="none" xmlns="http://www.w3.org/2000/svg">
<rect width="375" height="192" rx="20" fill="white" fill-opacity="0.6"/>
<rect x="0.25" y="0.25" width="374.5" height="191.5" rx="19.75" stroke="white" stroke-opacity="0.6" stroke-width="0.5"/>
<path d="M49.2611 134.522C70.3921 134.522 87.5222 117.392 87.5222 96.2611C87.5222 75.1301 70.3921 58 49.2611 58C28.1301 58 11 75.1301 11 96.2611C11 117.392 28.1301 134.522 49.2611 134.522Z" fill="url(#paint0_linear_516674_1480)"/>
<path fill-rule="evenodd" clip-rule="evenodd" d="M62.9489 78.2523L49.2985 88.4895C49.2593 88.5189 49.181 88.5777 49.181 88.5777L35.2842 78.3421C34.5182 77.7644 33.6266 77.5049 32.7549 77.5048C30.7297 77.5045 28.81 78.9048 28.81 80.9692V88.7315L28.8071 111.807C28.8071 113.871 30.7269 115.271 32.752 115.271C33.6239 115.271 34.5152 115.011 35.2813 114.434L49.181 104.108C56.0971 109.324 62.946 114.434 62.946 114.434C63.712 115.011 64.6036 115.271 65.4753 115.271C67.5006 115.271 69.5548 113.871 69.5548 111.807V88.7315V80.8124C69.5548 78.7482 67.5033 77.415 65.4782 77.415C64.6063 77.415 63.715 77.6746 62.9489 78.2523Z" fill="white" fill-opacity="0.7"/>
<path fill-rule="evenodd" clip-rule="evenodd" d="M38.9819 96.3586L49.1805 104.109L59.3139 96.3565L49.1805 88.5781L38.9819 96.3586Z" fill="white" fill-opacity="0.6"/>
<path fill-rule="evenodd" clip-rule="evenodd" d="M28.8115 88.7041V104.013L38.9818 96.3583L28.8115 88.7041Z" fill="white" fill-opacity="0.6"/>
<path fill-rule="evenodd" clip-rule="evenodd" d="M59.314 96.3565L69.5544 104.109V88.5781L59.314 96.3565Z" fill="white" fill-opacity="0.6"/>
<path fill-rule="evenodd" clip-rule="evenodd" d="M62.7632 78.386L49.1807 88.578L59.314 96.3563L69.5545 88.578V80.8127C69.5545 77.8619 65.6738 75.9593 62.7632 78.386Z" fill="white"/>
<path fill-rule="evenodd" clip-rule="evenodd" d="M35.2977 78.282C32.7486 76.3635 28.8145 77.9566 28.8145 80.9073V88.7046L38.9819 96.3588L49.1805 88.5784L35.2977 78.282Z" fill="white"/>
<path fill-rule="evenodd" clip-rule="evenodd" d="M116.141 95.0081V107.613H121.13V95.0697C121.13 91.6823 122.977 89.4035 126.077 89.4035C129.526 89.4035 130.881 91.7644 130.881 94.9465V107.613H135.891V93.7558C135.891 88.6644 133.406 84.6611 127.699 84.6611C124.271 84.6611 122.074 85.9339 119.898 88.3359C118.625 86.0981 116.387 84.6611 112.979 84.6611C111.193 84.6611 108.422 85.318 106.266 88.1922V85.1743H101.38V107.613H106.389V95.1108C106.389 91.7233 108.237 89.4035 111.337 89.4035C114.786 89.4035 116.141 91.826 116.141 95.0081ZM145.839 97.7386V85.1743H140.829V98.9704C140.829 104.062 143.621 108.086 149.246 108.086C151.012 108.086 153.948 107.49 156.103 104.596V107.613H160.99V85.1743H155.98V97.6565C155.98 101.044 153.968 103.343 150.786 103.343C147.337 103.343 145.839 100.921 145.839 97.7386ZM173.75 108.004C179.334 108.004 181.942 104.472 181.942 101.003C181.942 97.8002 179.683 95.1313 175.577 94.2485L172.498 93.5915C171.245 93.3247 170.24 92.5856 170.24 91.2717C170.24 89.7525 171.738 88.726 173.319 88.726C175.967 88.726 177.055 90.4094 177.384 91.867L181.613 90.6763C181.223 88.5207 179.211 84.6816 173.319 84.6816C168.741 84.6816 165.394 87.9869 165.394 91.7028C165.394 94.6386 167.242 97.1843 171.328 98.1492L174.202 98.8267C176.091 99.2783 176.871 100.079 176.871 101.29C176.871 102.851 175.742 103.918 173.668 103.918C171.102 103.918 169.583 102.255 169.172 100.346L164.881 101.475C165.169 103.98 167.653 108.004 173.75 108.004ZM185.197 77.8862C185.197 76.059 186.675 74.5604 188.482 74.5604C190.309 74.5604 191.787 76.059 191.787 77.8862C191.787 79.7134 190.309 81.171 188.482 81.171C186.675 81.171 185.197 79.7134 185.197 77.8862ZM185.997 107.613V85.1743H191.007V107.613H185.997ZM199.394 107.613L205.04 99.7916L210.706 107.613H216.455L207.955 96.1783L216.188 85.1743H210.542L205.102 92.6061L199.723 85.1743H193.995L202.207 96.2604L193.687 107.613H199.394ZM233.917 95.0081V107.613H238.905V95.0697C238.905 91.6823 240.753 89.4035 243.853 89.4035C247.302 89.4035 248.657 91.7644 248.657 94.9465V107.613H253.666V93.7558C253.666 88.6644 251.182 84.6611 245.475 84.6611C242.046 84.6611 239.85 85.9339 237.674 88.3359C236.401 86.0981 234.163 84.6611 230.755 84.6611C228.969 84.6611 226.197 85.318 224.042 88.1922V85.1743H219.156V107.613H224.165V95.1108C224.165 91.7233 226.013 89.4035 229.113 89.4035C232.562 89.4035 233.917 91.826 233.917 95.0081ZM257.332 96.3631C257.332 102.399 261.89 107.962 268.377 107.962C270.163 107.962 273.982 107.08 275.83 104.205V107.613H280.777V85.1743H275.83V88.4385C273.982 85.667 270.471 84.7226 268.5 84.7226C261.479 84.7226 257.332 90.6968 257.332 96.3631ZM275.85 96.3631C275.85 100.202 273.181 103.425 269.116 103.425C265.072 103.425 262.382 100.223 262.382 96.3631C262.382 92.4624 265.051 89.2597 269.116 89.2597C273.181 89.2597 275.85 92.4624 275.85 96.3631ZM298.896 89.6703V85.1743H293.189V78.2147H288.2V85.1743H283.848V89.6703H288.2V100.654C288.2 106.115 290.684 107.819 295.098 107.819C295.714 107.819 297.315 107.778 298.691 107.367V103.117C297.726 103.241 297.11 103.282 296.658 103.282C294.154 103.282 293.189 102.317 293.189 100.387V89.6703H298.896ZM312.663 108.004C318.781 108.004 322.25 104.062 323.256 100.654L318.678 99.1757C318.021 100.9 316.604 103.446 312.765 103.446C308.947 103.446 306.114 100.449 306.114 96.2604C306.114 92.0107 309.07 89.2392 312.724 89.2392C316.44 89.2392 318.082 91.6823 318.596 93.4273L323.133 91.9492C322.188 88.1511 318.308 84.7021 312.745 84.7021C306.052 84.7021 300.981 89.9372 300.981 96.3425C300.981 102.953 306.052 108.004 312.663 108.004ZM341.991 95.0492V107.613H347V93.7968C347 88.6849 344.29 84.7021 338.583 84.7021C336.817 84.7021 334.005 85.2769 331.849 88.0074V73.3696H326.84V107.613H331.849V95.1108C331.849 91.7233 333.861 89.4445 337.043 89.4445C340.492 89.4445 341.991 91.8465 341.991 95.0492Z" fill="#2C3E50"/>
<defs>
<linearGradient id="paint0_linear_516674_1480" x1="49.2611" y1="58" x2="49.2611" y2="133.453" gradientUnits="userSpaceOnUse">
<stop stop-color="#FF6633"/>
<stop offset="1" stop-color="#FF0E83"/>
</linearGradient>
</defs>
</svg>
