<svg width="35" height="36" viewBox="0 0 35 36" fill="none" xmlns="http://www.w3.org/2000/svg">
<path d="M32.0832 12.1665H2.9165V32.5832H32.0832V12.1665Z" fill="white" fill-opacity="0.3"/>
<path d="M17.4998 24.5625C13.0665 24.5625 9.479 28.15 9.479 32.5833C9.49359 32.5833 25.5207 32.5833 25.5207 32.5833C25.5207 28.15 21.9332 24.5625 17.4998 24.5625Z" fill="white" fill-opacity="0.6"/>
<path d="M17.4997 24.5623C19.7146 24.5623 21.5101 22.7668 21.5101 20.5519C21.5101 18.337 19.7146 16.5415 17.4997 16.5415C15.2848 16.5415 13.4893 18.337 13.4893 20.5519C13.4893 22.7668 15.2848 24.5623 17.4997 24.5623Z" fill="white" fill-opacity="0.6"/>
<path d="M11.6665 3.4165H23.3332" stroke="white" stroke-opacity="0.6" stroke-width="1.2" stroke-miterlimit="10" stroke-linecap="round" stroke-linejoin="round"/>
<path d="M7.2915 7.7915H27.7082" stroke="white" stroke-opacity="0.6" stroke-width="1.2" stroke-miterlimit="10" stroke-linecap="round" stroke-linejoin="round"/>
</svg>
