<svg width="257" height="191" viewBox="0 0 257 191" fill="none" xmlns="http://www.w3.org/2000/svg">
<path d="M256.046 167.659H0V167.787H256.046V167.659Z" fill="#EBEBEB"/>
<path d="M230.39 175.898H213.43V176.026H230.39V175.898Z" fill="#EBEBEB"/>
<path d="M169.614 177.291H165.164V177.419H169.614V177.291Z" fill="#EBEBEB"/>
<path d="M212.918 171.146H203.091V171.275H212.918V171.146Z" fill="#EBEBEB"/>
<path d="M48.9815 172.007H26.8643V172.135H48.9815V172.007Z" fill="#EBEBEB"/>
<path d="M56.7855 172.007H53.5439V172.135H56.7855V172.007Z" fill="#EBEBEB"/>
<path d="M115.297 174.168H67.3242V174.296H115.297V174.168Z" fill="#EBEBEB"/>
<path d="M121.366 144.82H22.4863C21.7117 144.818 20.9693 144.51 20.422 143.961C19.8747 143.413 19.5674 142.67 19.5674 141.896V2.89844C19.5741 2.12827 19.8845 1.39186 20.431 0.84916C20.9775 0.306466 21.7161 0.00131935 22.4863 0H121.366C122.142 0 122.885 0.308068 123.434 0.856433C123.982 1.4048 124.29 2.14854 124.29 2.92404V141.896C124.29 142.671 123.982 143.415 123.434 143.963C122.885 144.512 122.142 144.82 121.366 144.82ZM22.4863 0.102419C21.7456 0.103775 21.0358 0.398953 20.5125 0.923162C19.9893 1.44737 19.6954 2.15778 19.6954 2.89844V141.896C19.6954 142.636 19.9893 143.347 20.5125 143.871C21.0358 144.395 21.7456 144.69 22.4863 144.692H121.366C122.107 144.69 122.818 144.395 123.342 143.871C123.866 143.347 124.161 142.637 124.162 141.896V2.89844C124.161 2.15731 123.866 1.44691 123.342 0.922849C122.818 0.398787 122.107 0.103772 121.366 0.102419H22.4863Z" fill="#EBEBEB"/>
<path d="M232.136 144.82H133.251C132.476 144.818 131.733 144.51 131.185 143.962C130.637 143.414 130.329 142.671 130.327 141.896V2.89844C130.335 2.1278 130.647 1.39139 131.194 0.84884C131.741 0.306287 132.481 0.00130496 133.251 0H232.136C232.905 0.00266518 233.643 0.308407 234.188 0.850958C234.734 1.39351 235.043 2.12915 235.05 2.89844V141.896C235.05 142.669 234.743 143.411 234.197 143.96C233.651 144.508 232.91 144.817 232.136 144.82ZM133.251 0.102419C132.51 0.103772 131.8 0.398787 131.276 0.922849C130.752 1.44691 130.457 2.15731 130.455 2.89844V141.896C130.457 142.637 130.752 143.347 131.276 143.871C131.8 144.395 132.51 144.69 133.251 144.692H232.136C232.877 144.69 233.588 144.395 234.112 143.871C234.636 143.347 234.931 142.637 234.932 141.896V2.89844C234.931 2.15731 234.636 1.44691 234.112 0.922849C233.588 0.398787 232.877 0.103772 232.136 0.102419H133.251Z" fill="#EBEBEB"/>
<path d="M139.458 28.8154H39.3135V87.7828H139.458V28.8154Z" fill="#EBEBEB"/>
<path d="M137.829 33.6597H40.9414V85.6268H137.829V33.6597Z" fill="#E0E0E0"/>
<path d="M77.4589 39.0674H45.6836V40.5627H77.4589V39.0674Z" fill="#F0F0F0"/>
<path d="M77.4589 42.2173H45.6836V43.7126H77.4589V42.2173Z" fill="#F0F0F0"/>
<path d="M77.4589 45.3667H45.6836V46.862H77.4589V45.3667Z" fill="#F0F0F0"/>
<path d="M82.58 48.5103H50.8047V50.0056H82.58V48.5103Z" fill="#F0F0F0"/>
<path d="M82.58 51.6592H50.8047V53.1545H82.58V51.6592Z" fill="#F0F0F0"/>
<path d="M82.58 54.8091H50.8047V56.3044H82.58V54.8091Z" fill="#F0F0F0"/>
<path d="M87.706 57.9536H55.9307V59.4489H87.706V57.9536Z" fill="#F0F0F0"/>
<path d="M87.706 61.103H55.9307V62.5983H87.706V61.103Z" fill="#F0F0F0"/>
<path d="M82.58 64.2524H50.8047V65.7477H82.58V64.2524Z" fill="#F0F0F0"/>
<path d="M87.706 67.4019H55.9307V68.8972H87.706V67.4019Z" fill="#F0F0F0"/>
<path d="M87.706 70.5454H55.9307V72.0407H87.706V70.5454Z" fill="#F0F0F0"/>
<path d="M77.4589 73.6953H45.6836V75.1906H77.4589V73.6953Z" fill="#F0F0F0"/>
<path d="M77.4589 76.8442H45.6836V78.3395H77.4589V76.8442Z" fill="#F0F0F0"/>
<path d="M77.4589 79.9888H45.6836V81.4841H77.4589V79.9888Z" fill="#F0F0F0"/>
<path d="M221.802 110.079H156.377V148.604H221.802V110.079Z" fill="#EBEBEB"/>
<path d="M220.743 113.244H157.443V147.196H220.743V113.244Z" fill="#E0E0E0"/>
<path d="M181.301 116.777H160.541V117.755H181.301V116.777Z" fill="#F0F0F0"/>
<path d="M181.301 118.831H160.541V119.809H181.301V118.831Z" fill="#F0F0F0"/>
<path d="M181.301 120.889H160.541V121.867H181.301V120.889Z" fill="#F0F0F0"/>
<path d="M184.645 122.949H163.885V123.927H184.645V122.949Z" fill="#F0F0F0"/>
<path d="M184.645 125.001H163.885V125.98H184.645V125.001Z" fill="#F0F0F0"/>
<path d="M184.645 127.061H163.885V128.039H184.645V127.061Z" fill="#F0F0F0"/>
<path d="M187.994 129.113H167.233V130.091H187.994V129.113Z" fill="#F0F0F0"/>
<path d="M187.994 131.172H167.233V132.15H187.994V131.172Z" fill="#F0F0F0"/>
<path d="M184.645 133.231H163.885V134.209H184.645V133.231Z" fill="#F0F0F0"/>
<path d="M187.994 135.284H167.233V136.262H187.994V135.284Z" fill="#F0F0F0"/>
<path d="M187.994 137.343H167.233V138.321H187.994V137.343Z" fill="#F0F0F0"/>
<path d="M181.301 139.397H160.541V140.375H181.301V139.397Z" fill="#F0F0F0"/>
<path d="M181.301 141.455H160.541V142.433H181.301V141.455Z" fill="#F0F0F0"/>
<path d="M181.301 143.514H160.541V144.492H181.301V143.514Z" fill="#F0F0F0"/>
<path d="M205.011 65.0103H184.251V65.9884H205.011V65.0103Z" fill="#F0F0F0"/>
<path d="M205.011 67.0684H184.251V68.0465H205.011V67.0684Z" fill="#F0F0F0"/>
<path d="M205.011 69.1274H184.251V70.1055H205.011V69.1274Z" fill="#F0F0F0"/>
<path d="M208.36 71.1812H184.251V72.1593H208.36V71.1812Z" fill="#F0F0F0"/>
<path d="M208.36 73.2393H184.251V74.2173H208.36V73.2393Z" fill="#F0F0F0"/>
<path d="M194.16 32.375H173.399V33.3531H194.16V32.375Z" fill="#F0F0F0"/>
<path d="M194.16 34.4331H173.399V35.4112H194.16V34.4331Z" fill="#F0F0F0"/>
<path d="M194.16 36.4868H173.399V37.4649H194.16V36.4868Z" fill="#F0F0F0"/>
<path d="M197.509 38.5449H173.399V39.523H197.509V38.5449Z" fill="#F0F0F0"/>
<path d="M197.509 40.6035H173.399V41.5816H197.509V40.6035Z" fill="#F0F0F0"/>
<path d="M208.36 75.293H184.251V76.2711H208.36V75.293Z" fill="#F0F0F0"/>
<path d="M211.709 77.3521H184.251V78.3301H211.709V77.3521Z" fill="#F0F0F0"/>
<path d="M211.709 79.4102H184.251V80.3882H211.709V79.4102Z" fill="#F0F0F0"/>
<path d="M208.36 81.4639H184.251V82.442H208.36V81.4639Z" fill="#F0F0F0"/>
<path d="M211.709 83.522H184.251V84.5001H211.709V83.522Z" fill="#F0F0F0"/>
<path d="M211.709 85.5757H184.251V86.5538H211.709V85.5757Z" fill="#F0F0F0"/>
<path d="M205.011 87.6338H184.251V88.6119H205.011V87.6338Z" fill="#F0F0F0"/>
<path d="M205.011 89.6929H184.251V90.671H205.011V89.6929Z" fill="#F0F0F0"/>
<path d="M205.011 91.7461H184.251V92.7242H205.011V91.7461Z" fill="#F0F0F0"/>
<path d="M63.4228 109.341H39.3135V110.319H63.4228V109.341Z" fill="#F0F0F0"/>
<path d="M66.7719 111.4H39.3135V112.378H66.7719V111.4Z" fill="#F0F0F0"/>
<path d="M66.7719 113.459H39.3135V114.438H66.7719V113.459Z" fill="#F0F0F0"/>
<path d="M60.0737 115.513H39.3135V116.491H60.0737V115.513Z" fill="#F0F0F0"/>
<path d="M60.0737 117.571H39.3135V118.549H60.0737V117.571Z" fill="#F0F0F0"/>
<path d="M60.0737 119.625H39.3135V120.603H60.0737V119.625Z" fill="#F0F0F0"/>
<path d="M181.839 65H177.706V69.1326H181.839V65Z" fill="#F0F0F0"/>
<path d="M109.715 130.03H88.9551V131.008H109.715V130.03Z" fill="#F0F0F0"/>
<path d="M109.715 132.084H88.9551V133.062H109.715V132.084Z" fill="#F0F0F0"/>
<path d="M109.715 134.143H88.9551V135.121H109.715V134.143Z" fill="#F0F0F0"/>
<path d="M113.064 136.201H88.9551V137.179H113.064V136.201Z" fill="#F0F0F0"/>
<path d="M113.064 138.254H88.9551V139.232H113.064V138.254Z" fill="#F0F0F0"/>
<path d="M113.064 140.313H88.9551V141.292H113.064V140.313Z" fill="#F0F0F0"/>
<path d="M116.413 142.367H88.9551V143.345H116.413V142.367Z" fill="#F0F0F0"/>
<path d="M116.413 144.425H88.9551V145.403H116.413V144.425Z" fill="#F0F0F0"/>
<path d="M113.064 146.483H88.9551V147.461H113.064V146.483Z" fill="#F0F0F0"/>
<path d="M116.413 148.538H88.9551V149.516H116.413V148.538Z" fill="#F0F0F0"/>
<path d="M116.413 150.596H88.9551V151.574H116.413V150.596Z" fill="#F0F0F0"/>
<path d="M109.715 152.649H88.9551V153.628H109.715V152.649Z" fill="#F0F0F0"/>
<path d="M109.715 154.708H88.9551V155.686H109.715V154.708Z" fill="#F0F0F0"/>
<path d="M33.7988 111.124C33.7988 111.475 33.9028 111.817 34.0974 112.109C34.2921 112.4 34.5689 112.627 34.8926 112.761C35.2164 112.895 35.5726 112.931 35.9163 112.862C36.26 112.794 36.5758 112.625 36.8236 112.377C37.0713 112.129 37.2401 111.814 37.3085 111.47C37.3768 111.126 37.3417 110.77 37.2076 110.446C37.0735 110.123 36.8464 109.846 36.5551 109.651C36.2637 109.456 35.9211 109.353 35.5707 109.353C35.3378 109.352 35.1071 109.397 34.8918 109.486C34.6765 109.575 34.481 109.705 34.3163 109.87C34.1516 110.035 34.0211 110.23 33.9323 110.446C33.8435 110.661 33.7982 110.892 33.7988 111.124Z" fill="#F0F0F0"/>
<path d="M83.9979 130.394L82.0469 133.774H85.949L83.9979 130.394Z" fill="#F0F0F0"/>
<path d="M128.023 190.785C182.859 190.785 227.312 188.19 227.312 184.988C227.312 181.787 182.859 179.191 128.023 179.191C73.1868 179.191 28.7334 181.787 28.7334 184.988C28.7334 188.19 73.1868 190.785 128.023 190.785Z" fill="#F5F5F5"/>
<path d="M170.25 36.9321H155.538C154.336 36.9321 153.183 37.4096 152.333 38.2595C151.483 39.1094 151.006 40.2622 151.006 41.4641V54.2664C151.006 55.4684 151.483 56.6211 152.333 57.4711C153.183 58.321 154.336 58.7985 155.538 58.7985H159.834L156.25 65.9114L162.907 58.7985H170.276C171.47 58.7904 172.612 58.3114 173.455 57.4657C174.298 56.62 174.773 55.4758 174.777 54.2818V41.4795C174.78 40.8833 174.665 40.2924 174.438 39.7408C174.212 39.1893 173.879 38.6878 173.459 38.2653C173.038 37.8427 172.538 37.5074 171.987 37.2787C171.437 37.0499 170.846 36.9321 170.25 36.9321Z" fill="#3369E3"/>
<path opacity="0.7" d="M170.25 36.9321H155.538C154.336 36.9321 153.183 37.4096 152.333 38.2595C151.483 39.1094 151.006 40.2622 151.006 41.4641V54.2664C151.006 55.4684 151.483 56.6211 152.333 57.4711C153.183 58.321 154.336 58.7985 155.538 58.7985H159.834L156.25 65.9114L162.907 58.7985H170.276C171.47 58.7904 172.612 58.3114 173.455 57.4657C174.298 56.62 174.773 55.4758 174.777 54.2818V41.4795C174.78 40.8833 174.665 40.2924 174.438 39.7408C174.212 39.1893 173.879 38.6878 173.459 38.2653C173.038 37.8427 172.538 37.5074 171.987 37.2787C171.437 37.0499 170.846 36.9321 170.25 36.9321Z" fill="white"/>
<path d="M168.055 52.9736C170.907 50.1219 170.907 45.4982 168.055 42.6464C165.203 39.7947 160.58 39.7947 157.728 42.6465C154.876 45.4982 154.876 50.1219 157.728 52.9737C160.58 55.8254 165.203 55.8254 168.055 52.9736Z" fill="#3369E3"/>
<path d="M162.129 51.0712C162.031 51.0714 161.935 51.0505 161.847 51.0098C161.758 50.9691 161.68 50.9097 161.617 50.8356L158.749 47.4609C158.633 47.3251 158.577 47.149 158.591 46.9714C158.605 46.7937 158.69 46.629 158.826 46.5136C158.961 46.3981 159.138 46.3414 159.315 46.3558C159.493 46.3702 159.658 46.4546 159.773 46.5904L162.129 49.3608L166.015 44.7827C166.073 44.7155 166.142 44.6601 166.221 44.6199C166.3 44.5796 166.385 44.5552 166.473 44.5481C166.561 44.541 166.65 44.5512 166.734 44.5783C166.818 44.6054 166.896 44.6487 166.963 44.7059C167.03 44.7631 167.085 44.8329 167.126 44.9115C167.166 44.99 167.19 45.0757 167.197 45.1637C167.205 45.2516 167.194 45.3402 167.167 45.4242C167.14 45.5082 167.097 45.586 167.04 45.6533L162.646 50.8356C162.582 50.9098 162.502 50.9693 162.413 51.0099C162.324 51.0506 162.227 51.0715 162.129 51.0712Z" fill="white"/>
<path d="M196.131 179.688H198.737C199.078 179.688 199.405 179.823 199.646 180.064C199.887 180.305 200.023 180.632 200.023 180.973V184.209H194.83V180.973C194.83 180.803 194.864 180.634 194.929 180.477C194.995 180.321 195.091 180.178 195.212 180.059C195.333 179.939 195.476 179.845 195.634 179.781C195.792 179.717 195.961 179.686 196.131 179.688Z" fill="#263238"/>
<path d="M196.326 181.419C196.326 181.204 195.46 159.763 187.59 137.456C180.374 117.013 165.606 91.6186 136.222 86.7588L136.56 84.7104C149.992 86.938 161.611 93.4416 171.09 104.032C178.638 112.461 184.845 123.491 189.525 136.806C197.488 159.404 198.354 181.117 198.359 181.358L196.326 181.419Z" fill="#263238"/>
<path d="M206.372 179.688H208.979C209.32 179.688 209.647 179.824 209.888 180.065C210.129 180.306 210.264 180.633 210.264 180.974V184.21H205.082V180.974C205.082 180.805 205.115 180.637 205.18 180.481C205.245 180.324 205.34 180.183 205.46 180.063C205.58 179.944 205.723 179.849 205.879 179.785C206.036 179.721 206.203 179.688 206.372 179.688Z" fill="#263238"/>
<path opacity="0.2" d="M196.131 179.688H198.737C199.078 179.688 199.405 179.823 199.646 180.064C199.887 180.305 200.023 180.632 200.023 180.973V184.209H194.83V180.973C194.83 180.803 194.864 180.634 194.929 180.477C194.995 180.321 195.091 180.178 195.212 180.059C195.333 179.939 195.476 179.845 195.634 179.781C195.792 179.717 195.961 179.686 196.131 179.688Z" fill="white"/>
<path opacity="0.2" d="M206.372 179.688H208.979C209.32 179.688 209.647 179.824 209.888 180.065C210.129 180.306 210.264 180.633 210.264 180.974V184.21H205.082V180.974C205.082 180.805 205.115 180.637 205.18 180.481C205.245 180.324 205.34 180.183 205.46 180.063C205.58 179.944 205.723 179.849 205.879 179.785C206.036 179.721 206.203 179.688 206.372 179.688Z" fill="white"/>
<path d="M206.648 182.023C206.091 177.233 204.606 172.597 202.275 168.376C197.154 159.26 188.909 154.104 177.771 153.115L177.951 151.067C192.75 152.373 200.329 160.689 204.067 167.454C206.546 171.909 208.113 176.813 208.676 181.879L206.648 182.023Z" fill="#263238"/>
<path d="M50.6455 184.209H45.4631V180.973C45.4631 180.632 45.5986 180.305 45.8396 180.064C46.0807 179.823 46.4076 179.688 46.7485 179.688H49.355C49.6959 179.688 50.0229 179.823 50.2639 180.064C50.505 180.305 50.6404 180.632 50.6404 180.973V184.209H50.6455Z" fill="#263238"/>
<path d="M47.1113 181.383C47.1113 181.147 47.265 157.427 63.6314 141.04C74.0371 130.624 88.6113 125.339 106.96 125.339V127.388C82.9731 127.388 65.9614 136.436 56.4007 154.288C52.021 162.676 49.5484 171.928 49.1597 181.383H47.1113Z" fill="#263238"/>
<path opacity="0.2" d="M50.6455 184.209H45.4631V180.973C45.4631 180.632 45.5986 180.305 45.8396 180.064C46.0807 179.823 46.4076 179.688 46.7485 179.688H49.355C49.6959 179.688 50.0229 179.823 50.2639 180.064C50.505 180.305 50.6404 180.632 50.6404 180.973V184.209H50.6455Z" fill="white"/>
<path d="M112.973 125.447H110.136V127.316H112.973V125.447Z" fill="#263238"/>
<path opacity="0.7" d="M112.973 125.447H110.136V127.316H112.973V125.447Z" fill="white"/>
<path d="M110.647 124.709H105.603C105.215 124.709 104.901 125.024 104.901 125.411V127.352C104.901 127.739 105.215 128.053 105.603 128.053H110.647C111.035 128.053 111.349 127.739 111.349 127.352V125.411C111.349 125.024 111.035 124.709 110.647 124.709Z" fill="#263238"/>
<path opacity="0.2" d="M110.647 124.709H105.603C105.215 124.709 104.901 125.024 104.901 125.411V127.352C104.901 127.739 105.215 128.053 105.603 128.053H110.647C111.035 128.053 111.349 127.739 111.349 127.352V125.411C111.349 125.024 111.035 124.709 110.647 124.709Z" fill="white"/>
<path d="M129.984 86.6001H132.821V84.731H129.984V86.6001Z" fill="#263238"/>
<path opacity="0.7" d="M129.984 86.6001H132.821V84.731H129.984V86.6001Z" fill="white"/>
<path d="M132.309 87.3374H137.353C137.741 87.3374 138.055 87.0233 138.055 86.6358V84.695C138.055 84.3075 137.741 83.9934 137.353 83.9934H132.309C131.922 83.9934 131.607 84.3075 131.607 84.695V86.6358C131.607 87.0233 131.922 87.3374 132.309 87.3374Z" fill="#263238"/>
<path opacity="0.2" d="M132.309 87.3374H137.353C137.741 87.3374 138.055 87.0233 138.055 86.6358V84.695C138.055 84.3075 137.741 83.9934 137.353 83.9934H132.309C131.922 83.9934 131.607 84.3075 131.607 84.695V86.6358C131.607 87.0233 131.922 87.3374 132.309 87.3374Z" fill="white"/>
<path d="M170.905 153.039H173.742V151.169H170.905V153.039Z" fill="#263238"/>
<path opacity="0.7" d="M170.905 153.039H173.742V151.169H170.905V153.039Z" fill="white"/>
<path d="M173.23 153.776H178.274C178.661 153.776 178.976 153.462 178.976 153.075V151.134C178.976 150.747 178.661 150.432 178.274 150.432H173.23C172.842 150.432 172.528 150.747 172.528 151.134V153.075C172.528 153.462 172.842 153.776 173.23 153.776Z" fill="#263238"/>
<path opacity="0.2" d="M173.23 153.776H178.274C178.661 153.776 178.976 153.462 178.976 153.075V151.134C178.976 150.747 178.661 150.432 178.274 150.432H173.23C172.842 150.432 172.528 150.747 172.528 151.134V153.075C172.528 153.462 172.842 153.776 173.23 153.776Z" fill="white"/>
<path d="M82.846 137.292L101.645 132.591C105.407 131.638 109.337 131.557 113.135 132.354C116.933 133.15 120.499 134.803 123.561 137.187C126.623 139.57 129.101 142.622 130.805 146.108C132.509 149.595 133.395 153.424 133.395 157.305V184.773H63.4531V162.036C63.4539 156.338 65.3645 150.803 68.8799 146.318C72.3953 141.832 77.3125 138.655 82.846 137.292Z" fill="#3369E3"/>
<path opacity="0.2" d="M82.846 137.292L101.645 132.591C105.407 131.638 109.337 131.557 113.135 132.354C116.933 133.15 120.499 134.803 123.561 137.187C126.623 139.57 129.101 142.622 130.805 146.108C132.509 149.595 133.395 153.424 133.395 157.305V184.773H63.4531V162.036C63.4539 156.338 65.3645 150.803 68.8799 146.318C72.3953 141.832 77.3125 138.655 82.846 137.292Z" fill="white"/>
<path opacity="0.2" d="M133.358 184.773H82.395V157.305C82.395 150.547 85.0797 144.065 89.8584 139.287C94.6372 134.508 101.119 131.823 107.877 131.823C114.635 131.823 121.116 134.508 125.895 139.287C130.674 144.065 133.358 150.547 133.358 157.305V184.773Z" fill="black"/>
<path d="M138.883 91.0528L102.562 94.627L107.835 148.22L144.157 144.646L138.883 91.0528Z" fill="#263238"/>
<path d="M139.965 96.7905L102.619 100.465C101.921 100.534 101.411 101.156 101.48 101.854L101.619 103.271C101.688 103.969 102.309 104.479 103.008 104.41L140.353 100.735C141.051 100.666 141.561 100.045 141.493 99.3468L141.353 97.93C141.285 97.232 140.663 96.7218 139.965 96.7905Z" fill="#263238"/>
<path opacity="0.1" d="M139.965 96.7905L102.619 100.465C101.921 100.534 101.411 101.156 101.48 101.854L101.619 103.271C101.688 103.969 102.309 104.479 103.008 104.41L140.353 100.735C141.051 100.666 141.561 100.045 141.493 99.3468L141.353 97.93C141.285 97.232 140.663 96.7218 139.965 96.7905Z" fill="white"/>
<path d="M140.67 103.979L103.324 107.653C102.626 107.722 102.116 108.344 102.185 109.042L102.324 110.458C102.393 111.157 103.015 111.667 103.713 111.598L141.058 107.923C141.756 107.854 142.267 107.233 142.198 106.535L142.058 105.118C141.99 104.42 141.368 103.91 140.67 103.979Z" fill="#263238"/>
<path opacity="0.1" d="M140.67 103.979L103.324 107.653C102.626 107.722 102.116 108.344 102.185 109.042L102.324 110.458C102.393 111.157 103.015 111.667 103.713 111.598L141.058 107.923C141.756 107.854 142.267 107.233 142.198 106.535L142.058 105.118C141.99 104.42 141.368 103.91 140.67 103.979Z" fill="white"/>
<path d="M142.354 111.547L104.828 115.3C104.126 115.37 103.614 115.995 103.685 116.697L103.827 118.12C103.897 118.822 104.523 119.334 105.224 119.263L142.75 115.511C143.451 115.441 143.963 114.815 143.893 114.114L143.751 112.69C143.681 111.989 143.055 111.477 142.354 111.547Z" fill="#263238"/>
<path opacity="0.1" d="M142.354 111.547L104.828 115.3C104.126 115.37 103.614 115.995 103.685 116.697L103.827 118.12C103.897 118.822 104.523 119.334 105.224 119.263L142.75 115.511C143.451 115.441 143.963 114.815 143.893 114.114L143.751 112.69C143.681 111.989 143.055 111.477 142.354 111.547Z" fill="white"/>
<path d="M142.086 118.345L104.74 122.02C104.042 122.089 103.532 122.71 103.601 123.408L103.74 124.825C103.809 125.523 104.431 126.033 105.129 125.965L142.474 122.29C143.172 122.221 143.683 121.6 143.614 120.902L143.474 119.485C143.406 118.787 142.784 118.277 142.086 118.345Z" fill="#263238"/>
<path opacity="0.1" d="M142.086 118.345L104.74 122.02C104.042 122.089 103.532 122.71 103.601 123.408L103.74 124.825C103.809 125.523 104.431 126.033 105.129 125.965L142.474 122.29C143.172 122.221 143.683 121.6 143.614 120.902L143.474 119.485C143.406 118.787 142.784 118.277 142.086 118.345Z" fill="white"/>
<path d="M142.791 125.523L105.446 129.198C104.747 129.267 104.237 129.889 104.306 130.587L104.445 132.003C104.514 132.701 105.136 133.212 105.834 133.143L143.179 129.468C143.877 129.399 144.388 128.778 144.319 128.08L144.179 126.663C144.111 125.965 143.489 125.455 142.791 125.523Z" fill="#263238"/>
<path opacity="0.1" d="M142.791 125.523L105.446 129.198C104.747 129.267 104.237 129.889 104.306 130.587L104.445 132.003C104.514 132.701 105.136 133.212 105.834 133.143L143.179 129.468C143.877 129.399 144.388 128.778 144.319 128.08L144.179 126.663C144.111 125.965 143.489 125.455 142.791 125.523Z" fill="white"/>
<path d="M143.501 132.712L106.155 136.387C105.457 136.456 104.947 137.078 105.016 137.776L105.155 139.192C105.224 139.89 105.846 140.401 106.544 140.332L143.889 136.657C144.587 136.588 145.098 135.967 145.029 135.269L144.889 133.852C144.821 133.154 144.199 132.644 143.501 132.712Z" fill="#263238"/>
<path opacity="0.1" d="M143.501 132.712L106.155 136.387C105.457 136.456 104.947 137.078 105.016 137.776L105.155 139.192C105.224 139.89 105.846 140.401 106.544 140.332L143.889 136.657C144.587 136.588 145.098 135.967 145.029 135.269L144.889 133.852C144.821 133.154 144.199 132.644 143.501 132.712Z" fill="white"/>
<path d="M106.294 144.41H149.94V155.942H102.715V147.995C102.715 147.045 103.092 146.134 103.763 145.462C104.434 144.79 105.345 144.412 106.294 144.41Z" fill="#263238"/>
<path opacity="0.2" d="M106.294 144.41H149.94V155.942H102.715V147.995C102.715 147.045 103.092 146.134 103.763 145.462C104.434 144.79 105.345 144.412 106.294 144.41Z" fill="white"/>
<path d="M125.058 150.161V184.773H82.3955V157.304C82.3938 154.886 82.7387 152.481 83.4197 150.161H125.058Z" fill="#3369E3"/>
<path d="M170.316 137.292L151.517 132.591C147.76 131.65 143.837 131.577 140.046 132.378C136.256 133.18 132.699 134.835 129.644 137.217C126.589 139.6 124.118 142.647 122.417 146.128C120.716 149.608 119.831 153.431 119.829 157.305V184.773H189.714V162.036C189.712 156.337 187.801 150.803 184.284 146.318C180.768 141.832 175.85 138.655 170.316 137.292Z" fill="#3369E3"/>
<path opacity="0.2" d="M170.316 137.292L151.517 132.591C147.76 131.65 143.837 131.577 140.046 132.378C136.256 133.18 132.699 134.835 129.644 137.217C126.589 139.6 124.118 142.647 122.417 146.128C120.716 149.608 119.831 153.431 119.829 157.305V184.773H189.714V162.036C189.712 156.337 187.801 150.803 184.284 146.318C180.768 141.832 175.85 138.655 170.316 137.292Z" fill="white"/>
<path opacity="0.2" d="M164.228 136.555C170.986 136.555 177.467 139.239 182.246 144.018C187.025 148.797 189.709 155.278 189.709 162.036V184.768H138.746V162.036C138.746 155.278 141.431 148.797 146.21 144.018C150.988 139.239 157.47 136.555 164.228 136.555Z" fill="black"/>
<path d="M75.697 161.708H122.215C124.471 161.708 126.635 162.605 128.23 164.2C129.825 165.795 130.721 167.958 130.721 170.214V184.773H67.1963V170.209C67.1976 167.955 68.0937 165.794 69.6876 164.2C71.2815 162.606 73.4429 161.71 75.697 161.708Z" fill="#263238"/>
<path opacity="0.2" d="M75.697 161.708H122.215C124.471 161.708 126.635 162.605 128.23 164.2C129.825 165.795 130.721 167.958 130.721 170.214V184.773H67.1963V170.209C67.1976 167.955 68.0937 165.794 69.6876 164.2C71.2815 162.606 73.4429 161.71 75.697 161.708Z" fill="white"/>
<path opacity="0.2" d="M73.9508 164.5H110.908C112.701 164.5 114.421 165.212 115.688 166.479C116.956 167.747 117.668 169.466 117.668 171.259V184.773H67.1963V171.259C67.1963 169.467 67.9078 167.749 69.1743 166.481C70.4409 165.214 72.1589 164.501 73.9508 164.5Z" fill="white"/>
<path opacity="0.4" d="M166.603 146.074C158.722 146.074 152.331 153.075 152.331 161.708C152.331 170.342 158.722 177.337 166.603 177.337C174.489 177.337 180.88 170.342 180.88 161.708C180.88 153.075 174.489 146.074 166.603 146.074Z" fill="black"/>
<path d="M165.918 146.802C158.405 146.802 152.312 153.459 152.312 161.709C152.312 169.938 158.405 176.611 165.918 176.611C173.435 176.611 179.524 169.953 179.524 161.709C179.545 153.474 173.456 146.802 165.918 146.802Z" fill="#263238"/>
<path d="M165.088 154.754H168.406C171.663 154.754 174.3 157.868 174.3 161.709C174.3 165.549 171.663 168.658 168.406 168.658H165.088C161.831 168.658 159.193 165.544 159.193 161.709C159.193 157.873 161.82 154.754 165.088 154.754Z" fill="#3369E3"/>
<path opacity="0.4" d="M165.088 154.754H168.406C171.663 154.754 174.3 157.868 174.3 161.709C174.3 165.549 171.663 168.658 168.406 168.658H165.088C161.831 168.658 159.193 165.544 159.193 161.709C159.193 157.873 161.82 154.754 165.088 154.754Z" fill="black"/>
<path d="M168.407 168.657C171.665 168.657 174.306 165.546 174.306 161.708C174.306 157.87 171.665 154.759 168.407 154.759C165.149 154.759 162.508 157.87 162.508 161.708C162.508 165.546 165.149 168.657 168.407 168.657Z" fill="#3369E3"/>
<path opacity="0.4" d="M168.407 167.557C170.967 167.557 173.118 164.879 173.118 161.709C173.118 158.539 170.957 155.855 168.407 155.855C165.856 155.855 163.695 158.539 163.695 161.709C163.695 164.879 165.851 167.557 168.407 167.557Z" fill="black"/>
<path d="M167.915 166.942C170.204 166.942 172.135 164.541 172.135 161.704C172.135 158.867 170.204 156.46 167.915 156.46C165.626 156.46 163.695 158.862 163.695 161.704C163.695 164.546 165.626 166.942 167.915 166.942Z" fill="#263238"/>
<path opacity="0.4" d="M95.9354 174.711C95.9354 176.14 94.9112 177.271 93.677 177.271C92.4429 177.271 91.4238 176.119 91.4238 174.711C91.4238 173.303 92.448 172.15 93.677 172.15C94.9061 172.15 95.9354 173.287 95.9354 174.711Z" fill="black"/>
<path d="M95.9357 174.71C95.8953 175.021 95.7662 175.313 95.5639 175.552C95.3616 175.792 95.0946 175.967 94.795 176.058C94.4954 176.15 94.1758 176.152 93.8746 176.067C93.5734 175.981 93.3033 175.81 93.0968 175.575C92.8902 175.339 92.7559 175.049 92.71 174.739C92.6641 174.43 92.7084 174.113 92.8378 173.828C92.9672 173.543 93.1761 173.301 93.4394 173.131C93.7028 172.962 94.0094 172.872 94.3226 172.872C94.7792 172.905 95.2044 173.116 95.5063 173.46C95.8082 173.804 95.9625 174.254 95.9357 174.71Z" fill="#3369E3"/>
<path opacity="0.4" d="M102.669 174.711C102.669 176.14 101.645 177.271 100.416 177.271C99.1873 177.271 98.1631 176.119 98.1631 174.711C98.1631 173.303 99.1873 172.15 100.416 172.15C101.645 172.15 102.669 173.287 102.669 174.711Z" fill="black"/>
<path d="M102.669 174.71C102.628 175.02 102.498 175.31 102.296 175.548C102.094 175.785 101.827 175.96 101.529 176.05C101.23 176.14 100.912 176.142 100.612 176.056C100.312 175.97 100.043 175.799 99.838 175.564C99.6326 175.329 99.4992 175.04 99.4538 174.732C99.4084 174.423 99.4529 174.108 99.5819 173.824C99.7109 173.54 99.919 173.299 100.181 173.13C100.444 172.962 100.749 172.872 101.061 172.872C101.517 172.905 101.942 173.116 102.243 173.461C102.544 173.805 102.697 174.254 102.669 174.71Z" fill="#3369E3"/>
<path opacity="0.4" d="M109.408 174.711C109.408 176.14 108.384 177.271 107.155 177.271C105.926 177.271 104.901 176.119 104.901 174.711C104.901 173.303 105.926 172.15 107.155 172.15C108.384 172.15 109.408 173.287 109.408 174.711Z" fill="black"/>
<path d="M109.408 174.71C109.367 175.02 109.237 175.31 109.035 175.548C108.833 175.785 108.566 175.96 108.268 176.05C107.969 176.14 107.651 176.142 107.351 176.056C107.051 175.97 106.783 175.799 106.577 175.564C106.372 175.329 106.238 175.04 106.193 174.732C106.148 174.423 106.192 174.108 106.321 173.824C106.45 173.54 106.658 173.299 106.921 173.13C107.183 172.962 107.488 172.872 107.8 172.872C108.256 172.906 108.68 173.118 108.981 173.462C109.281 173.806 109.435 174.254 109.408 174.71Z" fill="#3369E3"/>
<path opacity="0.4" d="M76.0147 172.134H73.7257C73.0752 172.134 72.5479 172.662 72.5479 173.312V176.113C72.5479 176.764 73.0752 177.291 73.7257 177.291H76.0147C76.6652 177.291 77.1925 176.764 77.1925 176.113V173.312C77.1925 172.662 76.6652 172.134 76.0147 172.134Z" fill="black"/>
<path d="M76.25 172.652H74.5243C74.0039 172.652 73.582 173.074 73.582 173.594V175.832C73.582 176.352 74.0039 176.774 74.5243 176.774H76.25C76.7704 176.774 77.1923 176.352 77.1923 175.832V173.594C77.1923 173.074 76.7704 172.652 76.25 172.652Z" fill="#3369E3"/>
<path d="M101.584 87.8594H132.458V111.124C132.458 112.296 131.992 113.42 131.164 114.249C130.335 115.077 129.211 115.543 128.039 115.543H101.584V87.8594Z" fill="#263238"/>
<path opacity="0.2" d="M101.584 87.8594H132.458V111.124C132.458 112.296 131.992 113.42 131.164 114.249C130.335 115.077 129.211 115.543 128.039 115.543H101.584V87.8594Z" fill="white"/>
<path d="M113.587 109.485C113.224 109.485 112.865 109.414 112.53 109.275C112.195 109.136 111.89 108.932 111.634 108.675C111.377 108.418 111.174 108.113 111.036 107.778C110.897 107.442 110.826 107.083 110.827 106.72V95.1159C110.826 94.753 110.897 94.3935 111.036 94.058C111.174 93.7226 111.377 93.4177 111.634 93.1608C111.89 92.904 112.195 92.7002 112.53 92.5612C112.865 92.4222 113.224 92.3506 113.587 92.3506C114.321 92.3506 115.024 92.6419 115.543 93.1605C116.061 93.6791 116.353 94.3825 116.353 95.1159V106.72C116.353 107.453 116.061 108.157 115.543 108.675C115.024 109.194 114.321 109.485 113.587 109.485Z" fill="#263238"/>
<path d="M144.768 63.6379V86.5438C144.768 88.3678 144.043 90.1171 142.753 91.4069C141.464 92.6966 139.714 93.4212 137.89 93.4212H120.367C117.714 93.4212 110.826 95.572 110.826 98.2246V107.442H80.874V69.4553C80.8734 66.8136 81.3932 64.1976 82.4038 61.7568C83.4145 59.3161 84.8961 57.0984 86.7641 55.2304C88.632 53.3624 90.8498 51.8808 93.2905 50.8701C95.7313 49.8595 98.3473 49.3397 100.989 49.3403H130.47C134.262 49.3403 137.899 50.8467 140.58 53.528C143.261 56.2093 144.768 59.846 144.768 63.6379Z" fill="#3369E3"/>
<path opacity="0.2" d="M144.768 63.6379V86.5438C144.768 88.3678 144.043 90.1171 142.753 91.4069C141.464 92.6966 139.714 93.4212 137.89 93.4212H120.367C117.714 93.4212 110.826 95.572 110.826 98.2246V107.442H80.874V69.4553C80.8734 66.8136 81.3932 64.1976 82.4038 61.7568C83.4145 59.3161 84.8961 57.0984 86.7641 55.2304C88.632 53.3624 90.8498 51.8808 93.2905 50.8701C95.7313 49.8595 98.3473 49.3397 100.989 49.3403H130.47C134.262 49.3403 137.899 50.8467 140.58 53.528C143.261 56.2093 144.768 59.846 144.768 63.6379Z" fill="white"/>
<path d="M104.405 73.3218H101.092C97.8348 73.3218 95.1924 76.4353 95.1924 80.276C95.1924 84.1167 97.8348 87.2251 101.092 87.2251H104.405C107.662 87.2251 110.304 84.1116 110.304 80.276C110.304 76.4404 107.662 73.3218 104.405 73.3218Z" fill="#3369E3"/>
<path opacity="0.3" d="M101.092 87.2248C104.35 87.2248 106.991 84.1136 106.991 80.2757C106.991 76.4379 104.35 73.3267 101.092 73.3267C97.8336 73.3267 95.1924 76.4379 95.1924 80.2757C95.1924 84.1136 97.8336 87.2248 101.092 87.2248Z" fill="white"/>
<path opacity="0.4" d="M101.091 86.1242C98.5307 86.1242 96.3799 83.4459 96.3799 80.2761C96.3799 77.1062 98.5358 74.4229 101.091 74.4229C103.646 74.4229 105.802 77.1011 105.802 80.2761C105.802 83.451 103.646 86.1242 101.091 86.1242Z" fill="black"/>
<path d="M101.583 85.5196C99.2941 85.5196 97.3584 83.1179 97.3584 80.2809C97.3584 77.4439 99.2941 75.0371 101.583 75.0371C103.872 75.0371 105.803 77.4388 105.803 80.2809C105.803 83.123 103.872 85.5196 101.583 85.5196Z" fill="#263238"/>
<path opacity="0.5" d="M99.8577 79.7889C99.192 79.7889 98.6338 79.0924 98.6338 78.2526C98.6338 77.4128 99.192 76.7163 99.8577 76.7163C100.523 76.7163 101.082 77.4128 101.082 78.2526C101.082 79.0924 100.529 79.7889 99.8577 79.7889Z" fill="white"/>
<path d="M85.9391 73.3218H82.6259C79.369 73.3218 76.7266 76.4353 76.7266 80.276C76.7266 84.1167 79.369 87.2251 82.6259 87.2251H85.9391C89.196 87.2251 91.8333 84.1116 91.8333 80.276C91.8333 76.4404 89.196 73.3218 85.9391 73.3218Z" fill="#3369E3"/>
<path opacity="0.3" d="M82.6259 87.2248C85.884 87.2248 88.5252 84.1136 88.5252 80.2757C88.5252 76.4379 85.884 73.3267 82.6259 73.3267C79.3678 73.3267 76.7266 76.4379 76.7266 80.2757C76.7266 84.1136 79.3678 87.2248 82.6259 87.2248Z" fill="white"/>
<path opacity="0.4" d="M82.6256 86.1242C80.0651 86.1242 77.9092 83.4459 77.9092 80.2761C77.9092 77.1062 80.0702 74.4229 82.6256 74.4229C85.1809 74.4229 87.3368 77.1011 87.3368 80.2761C87.3368 83.451 85.1758 86.1242 82.6256 86.1242Z" fill="black"/>
<path d="M83.1122 85.5196C80.8232 85.5196 78.8926 83.1179 78.8926 80.2809C78.8926 77.4439 80.8232 75.0371 83.1122 75.0371C85.4013 75.0371 87.337 77.4388 87.337 80.2809C87.337 83.123 85.4013 85.5196 83.1122 85.5196Z" fill="#263238"/>
<path opacity="0.5" d="M81.4221 79.7889C80.7615 79.7889 80.1982 79.0924 80.1982 78.2526C80.1982 77.4128 80.7615 76.7163 81.4221 76.7163C81.7883 76.7685 82.1234 76.951 82.3658 77.2304C82.6082 77.5098 82.7417 77.8673 82.7417 78.2372C82.7417 78.6071 82.6082 78.9646 82.3658 79.244C82.1234 79.5234 81.7883 79.706 81.4221 79.7581V79.7889Z" fill="white"/>
<path d="M87.5167 100.417H94.3532V85.5146H90.7327L83.9014 100.417H87.5167Z" fill="#263238"/>
<path opacity="0.2" d="M87.5167 100.417H83.9014L90.7327 85.5146H94.3532L87.5167 100.417Z" fill="white"/>
<path d="M132.458 110.377V111.181C132.456 115.208 130.856 119.07 128.007 121.917C125.159 124.765 121.296 126.364 117.269 126.364H95.5871C91.5597 126.364 87.6972 124.765 84.8489 121.917C82.0006 119.07 80.3998 115.208 80.3984 111.181V104.744H110.351V109.547C110.352 110.821 110.859 112.042 111.759 112.942C112.66 113.843 113.881 114.349 115.154 114.35H128.469C128.991 114.352 129.51 114.25 129.993 114.051C130.477 113.852 130.916 113.56 131.287 113.191C131.657 112.821 131.951 112.383 132.152 111.9C132.353 111.417 132.457 110.9 132.458 110.377Z" fill="#263238"/>
<path opacity="0.2" d="M132.458 110.377V111.181C132.456 115.208 130.856 119.07 128.007 121.917C125.159 124.765 121.296 126.364 117.269 126.364H95.5871C91.5597 126.364 87.6972 124.765 84.8489 121.917C82.0006 119.07 80.3998 115.208 80.3984 111.181V104.744H110.351V109.547C110.352 110.821 110.859 112.042 111.759 112.942C112.66 113.843 113.881 114.349 115.154 114.35H128.469C128.991 114.352 129.51 114.25 129.993 114.051C130.477 113.852 130.916 113.56 131.287 113.191C131.657 112.821 131.951 112.383 132.152 111.9C132.353 111.417 132.457 110.9 132.458 110.377Z" fill="white"/>
<path opacity="0.2" d="M86.1593 111.262C85.9595 111.263 85.7622 111.306 85.58 111.388C85.3979 111.471 85.2352 111.59 85.1023 111.739C84.9695 111.889 84.8696 112.064 84.8091 112.255C84.7485 112.445 84.7288 112.646 84.7511 112.845C85.1633 116.562 86.9326 119.998 89.72 122.492C92.5075 124.987 96.1171 126.365 99.8578 126.364H102.695C98.908 126.365 95.2575 124.951 92.4591 122.4C89.6606 119.848 87.9161 116.344 87.5676 112.573C87.5394 112.218 87.3791 111.886 87.1184 111.644C86.8577 111.401 86.5155 111.265 86.1593 111.262Z" fill="black"/>
<path opacity="0.2" d="M93.2619 111.262C93.0621 111.263 92.8647 111.306 92.6826 111.388C92.5005 111.471 92.3377 111.59 92.2049 111.739C92.0721 111.889 91.9721 112.064 91.9116 112.255C91.8511 112.445 91.8313 112.646 91.8536 112.845C92.2658 116.562 94.0343 119.996 96.8207 122.49C99.607 124.985 103.215 126.364 106.955 126.364H109.792C106.007 126.362 102.358 124.947 99.5609 122.397C96.7638 119.846 95.0197 116.343 94.6701 112.573C94.6419 112.218 94.4817 111.886 94.221 111.644C93.9603 111.401 93.618 111.265 93.2619 111.262Z" fill="black"/>
<path opacity="0.2" d="M100.369 111.262C100.169 111.263 99.9721 111.306 99.79 111.388C99.6079 111.471 99.4451 111.59 99.3123 111.739C99.1795 111.889 99.0796 112.064 99.019 112.255C98.9585 112.445 98.9387 112.646 98.961 112.845C99.3732 116.562 101.142 119.996 103.928 122.49C106.714 124.985 110.323 126.364 114.063 126.364H116.9C113.114 126.362 109.465 124.947 106.668 122.397C103.871 119.846 102.127 116.343 101.778 112.573C101.749 112.218 101.589 111.886 101.328 111.644C101.068 111.401 100.725 111.265 100.369 111.262Z" fill="black"/>
<path d="M110.55 107.421H80.5206C80.2884 107.422 80.0584 107.377 79.8437 107.288C79.6291 107.2 79.4341 107.07 79.2699 106.905C79.1057 106.741 78.9756 106.546 78.887 106.332C78.7985 106.117 78.7532 105.887 78.7539 105.655C78.7532 105.422 78.7984 105.192 78.8869 104.977C78.9754 104.762 79.1054 104.567 79.2696 104.402C79.4337 104.237 79.6287 104.107 79.8434 104.018C80.058 103.929 80.2882 103.883 80.5206 103.883H110.55C111.02 103.883 111.47 104.069 111.803 104.402C112.135 104.734 112.322 105.185 112.322 105.655C112.322 105.887 112.276 106.117 112.187 106.332C112.097 106.547 111.967 106.742 111.802 106.906C111.638 107.07 111.442 107.2 111.227 107.288C111.012 107.377 110.782 107.422 110.55 107.421Z" fill="#263238"/>
<path opacity="0.4" d="M112.322 105.654C112.319 106.124 112.132 106.573 111.8 106.904C111.468 107.236 111.019 107.424 110.55 107.426H80.5212C80.1707 107.426 79.8281 107.322 79.5369 107.127C79.2457 106.932 79.0188 106.655 78.8851 106.331C78.7513 106.007 78.7166 105.65 78.7855 105.307C78.8543 104.963 79.0235 104.647 79.2717 104.4C79.4354 104.236 79.6302 104.106 79.8448 104.018C80.0593 103.93 80.2893 103.886 80.5212 103.888H110.55C111.019 103.888 111.469 104.074 111.801 104.405C112.133 104.736 112.321 105.185 112.322 105.654Z" fill="white"/>
<path opacity="0.2" d="M112.322 105.655C112.32 106.124 112.132 106.573 111.8 106.905C111.469 107.236 111.02 107.424 110.55 107.426H110.356C109.886 107.426 109.435 107.24 109.103 106.908C108.771 106.575 108.584 106.125 108.584 105.655C108.584 105.185 108.771 104.734 109.103 104.402C109.435 104.069 109.886 103.883 110.356 103.883H110.55C110.783 103.883 111.014 103.929 111.228 104.018C111.443 104.107 111.639 104.237 111.803 104.402C111.968 104.566 112.098 104.762 112.187 104.977C112.276 105.192 112.322 105.422 112.322 105.655Z" fill="black"/>
<path d="M140.825 79.6811V88.2177C140.825 88.5234 140.765 88.8262 140.647 89.1086C140.53 89.391 140.358 89.6475 140.142 89.8634C139.926 90.0794 139.669 90.2505 139.386 90.3671C139.103 90.4836 138.801 90.5432 138.495 90.5426H129.968C129.352 90.5426 128.761 90.2976 128.325 89.8616C127.889 89.4256 127.644 88.8343 127.644 88.2177V79.6811C127.645 79.0654 127.89 78.4754 128.326 78.0405C128.762 77.6056 129.353 77.3613 129.968 77.3613H138.5C139.116 77.3613 139.706 77.6056 140.142 78.0405C140.578 78.4754 140.823 79.0654 140.825 79.6811Z" fill="#3369E3"/>
<path opacity="0.2" d="M140.825 79.6811V88.2177C140.825 88.5234 140.765 88.8262 140.648 89.1086C140.531 89.391 140.359 89.6475 140.143 89.8634C139.926 90.0794 139.669 90.2505 139.387 90.3671C139.104 90.4836 138.801 90.5433 138.495 90.5426H132.811C132.195 90.5426 131.603 90.2976 131.167 89.8616C130.731 89.4256 130.486 88.8343 130.486 88.2177V79.6811C130.486 79.376 130.546 79.074 130.663 78.7922C130.78 78.5104 130.952 78.2544 131.168 78.039C131.384 77.8235 131.64 77.6527 131.922 77.5364C132.204 77.4202 132.506 77.3607 132.811 77.3613H138.501C139.116 77.3613 139.707 77.6056 140.143 78.0405C140.579 78.4754 140.824 79.0654 140.825 79.6811Z" fill="black"/>
<path d="M139.135 80.9359H133.19C133.112 80.9366 133.036 80.922 132.965 80.8929C132.893 80.8639 132.828 80.821 132.773 80.7667C132.719 80.7125 132.675 80.6479 132.646 80.5767C132.616 80.5055 132.601 80.4292 132.601 80.3521C132.6 80.2746 132.615 80.1977 132.644 80.1259C132.673 80.0542 132.717 79.989 132.772 79.9342C132.826 79.8794 132.892 79.836 132.963 79.8066C133.035 79.7773 133.112 79.7625 133.19 79.7632H139.135C139.212 79.7632 139.288 79.7785 139.359 79.8081C139.431 79.8378 139.495 79.8812 139.55 79.936C139.604 79.9908 139.647 80.0557 139.676 80.1271C139.705 80.1986 139.719 80.275 139.719 80.3521C139.719 80.5069 139.657 80.6554 139.548 80.7649C139.438 80.8744 139.29 80.9359 139.135 80.9359Z" fill="#263238"/>
<path d="M139.135 83.3378H133.19C133.112 83.3384 133.035 83.3237 132.963 83.2943C132.892 83.265 132.826 83.2216 132.772 83.1668C132.717 83.112 132.673 83.0468 132.644 82.975C132.615 82.9033 132.6 82.8264 132.601 82.7488C132.601 82.6717 132.616 82.5954 132.646 82.5243C132.675 82.4531 132.719 82.3885 132.773 82.3342C132.828 82.2799 132.893 82.2371 132.965 82.208C133.036 82.179 133.112 82.1644 133.19 82.1651H139.135C139.29 82.1651 139.438 82.2266 139.548 82.3361C139.657 82.4455 139.719 82.594 139.719 82.7488C139.719 82.8259 139.705 82.9024 139.676 82.9738C139.647 83.0452 139.604 83.1102 139.55 83.165C139.495 83.2197 139.431 83.2632 139.359 83.2928C139.288 83.3225 139.212 83.3378 139.135 83.3378Z" fill="#263238"/>
<path d="M139.135 85.7391H133.189C133.033 85.7391 132.884 85.6771 132.773 85.5666C132.663 85.4562 132.601 85.3064 132.601 85.1502C132.601 85.0731 132.616 84.9968 132.646 84.9256C132.675 84.8545 132.719 84.7899 132.773 84.7356C132.828 84.6813 132.893 84.6384 132.965 84.6094C133.036 84.5804 133.112 84.5658 133.189 84.5664H139.135C139.29 84.5664 139.438 84.6279 139.548 84.7374C139.657 84.8469 139.719 84.9954 139.719 85.1502C139.719 85.3055 139.657 85.4545 139.548 85.5648C139.439 85.6751 139.29 85.7378 139.135 85.7391Z" fill="#263238"/>
<path d="M139.135 88.1415H133.189C133.033 88.1415 132.884 88.0794 132.773 87.969C132.663 87.8585 132.601 87.7087 132.601 87.5526C132.601 87.4755 132.616 87.3991 132.646 87.328C132.675 87.2568 132.719 87.1922 132.773 87.1379C132.828 87.0837 132.893 87.0408 132.965 87.0117C133.036 86.9827 133.112 86.9681 133.189 86.9688H139.135C139.29 86.9688 139.438 87.0303 139.548 87.1398C139.657 87.2492 139.719 87.3977 139.719 87.5526C139.719 87.7079 139.657 87.8569 139.548 87.9672C139.439 88.0775 139.29 88.1401 139.135 88.1415Z" fill="#263238"/>
<path d="M146.663 66.8233V69.1328C146.663 69.6353 146.463 70.1173 146.108 70.4726C145.752 70.8279 145.271 71.0275 144.768 71.0275V65.5072C144.768 61.5916 143.213 57.8365 140.444 55.0677C137.675 52.299 133.92 50.7436 130.004 50.7436H118.293C116.283 50.7436 114.292 51.1399 112.435 51.91C110.578 52.68 108.892 53.8086 107.471 55.2313C106.051 56.6539 104.925 58.3426 104.158 60.2007C103.391 62.0589 102.998 64.05 103.002 66.0602C103.002 67.1373 102.574 68.1702 101.812 68.9317C101.051 69.6933 100.018 70.1211 98.9409 70.1211H84.6023C83.734 70.1198 82.9017 69.7739 82.2882 69.1594C81.6747 68.5449 81.3301 67.7121 81.3301 66.8437C81.3314 61.5098 83.4513 56.3948 87.2234 52.6236C90.9956 48.8524 96.1111 46.7339 101.445 46.7339H126.538C131.869 46.7325 136.984 48.8475 140.757 52.6143C144.531 56.381 146.655 61.4915 146.663 66.8233Z" fill="#3369E3"/>
<path opacity="0.4" d="M138.746 66.2036C140.021 66.2036 141.102 67.5453 141.102 69.1277C141.102 70.71 140.021 72.0568 138.746 72.0568C137.471 72.0568 136.391 70.7151 136.391 69.1277C136.391 67.5402 137.471 66.2036 138.746 66.2036Z" fill="black"/>
<path d="M138.5 66.5107C139.642 66.5107 140.61 67.709 140.61 69.1275C140.61 70.546 139.642 71.7494 138.5 71.7494C137.358 71.7494 136.391 70.5511 136.391 69.1275C136.391 67.7039 137.358 66.5107 138.5 66.5107Z" fill="#263238"/>
<path opacity="0.4" d="M132.154 66.2036C133.43 66.2036 134.51 67.5453 134.51 69.1277C134.51 70.71 133.43 72.0568 132.154 72.0568C130.879 72.0568 129.799 70.7151 129.799 69.1277C129.799 67.5402 130.874 66.2036 132.154 66.2036Z" fill="black"/>
<path d="M131.909 66.5107C133.051 66.5107 134.018 67.709 134.018 69.1275C134.018 70.546 133.051 71.7494 131.909 71.7494C130.767 71.7494 129.799 70.5511 129.799 69.1275C129.799 67.7039 130.762 66.5107 131.909 66.5107Z" fill="#263238"/>
<path opacity="0.4" d="M125.56 66.2036C126.84 66.2036 127.915 67.5453 127.915 69.1277C127.915 70.71 126.84 72.0568 125.56 72.0568C124.279 72.0568 123.204 70.7151 123.204 69.1277C123.204 67.5402 124.285 66.2036 125.56 66.2036Z" fill="black"/>
<path d="M125.314 66.5107C126.461 66.5107 127.429 67.709 127.429 69.1275C127.429 70.546 126.461 71.7494 125.314 71.7494C124.167 71.7494 123.204 70.5511 123.204 69.1275C123.204 67.7039 124.172 66.5107 125.314 66.5107Z" fill="#263238"/>
<path opacity="0.4" d="M135.448 58.6289C136.729 58.6289 137.804 59.9655 137.804 61.5529C137.804 63.1404 136.729 64.477 135.448 64.477C134.168 64.477 133.093 63.1353 133.093 61.5529C133.093 59.9706 134.168 58.6289 135.448 58.6289Z" fill="black"/>
<path d="M135.192 58.9312C136.339 58.9312 137.307 60.1346 137.307 61.5531C137.307 62.9716 136.339 64.175 135.192 64.175C134.045 64.175 133.082 62.9716 133.082 61.5531C133.082 60.1346 134.06 58.9312 135.192 58.9312Z" fill="#263238"/>
<path opacity="0.4" d="M128.858 58.6289C130.133 58.6289 131.213 59.9655 131.213 61.5529C131.213 63.1404 130.133 64.477 128.858 64.477C127.582 64.477 126.502 63.1353 126.502 61.5529C126.502 59.9706 127.582 58.6289 128.858 58.6289Z" fill="black"/>
<path d="M128.612 58.9312C129.753 58.9312 130.721 60.1346 130.721 61.5531C130.721 62.9716 129.753 64.175 128.612 64.175C127.47 64.175 126.486 62.9869 126.486 61.5531C126.486 60.1192 127.47 58.9312 128.612 58.9312Z" fill="#263238"/>
</svg>
