<svg width="400" height="400" viewBox="0 0 400 400" fill="none" xmlns="http://www.w3.org/2000/svg">
<path d="M400 353.074H0V353.334H400V353.074Z" fill="#EBEBEB"/>
<path d="M310.76 360.878H284.264V361.138H310.76V360.878Z" fill="#EBEBEB"/>
<path d="M241.6 369.669H206.376V369.929H241.6V369.669Z" fill="#EBEBEB"/>
<path d="M347.392 370.521H311.568V370.781H347.392V370.521Z" fill="#EBEBEB"/>
<path d="M77.5039 360.618H42.9519V360.878H77.5039V360.618Z" fill="#EBEBEB"/>
<path d="M89.6961 360.618H84.6321V360.878H89.6961V360.618Z" fill="#EBEBEB"/>
<path d="M181.104 365.003H106.16V365.263H181.104V365.003Z" fill="#EBEBEB"/>
<path d="M189.6 306.731H35.1279C33.9177 306.728 32.7579 306.102 31.903 304.989C31.048 303.877 30.5679 302.369 30.5679 300.797V18.7556C30.5784 17.1928 31.0632 15.6985 31.917 14.5973C32.7708 13.4961 33.9246 12.8769 35.1279 12.8743H189.6C190.811 12.8743 191.973 13.4994 192.83 14.6121C193.687 15.7248 194.168 17.2339 194.168 18.8075V300.797C194.168 302.371 193.687 303.88 192.83 304.993C191.973 306.106 190.811 306.731 189.6 306.731V306.731ZM35.1279 13.0821C33.9708 13.0848 32.8618 13.6838 32.0444 14.7475C31.227 15.8112 30.7679 17.2527 30.7679 18.7556V300.797C30.7679 302.3 31.227 303.742 32.0444 304.805C32.8618 305.869 33.9708 306.468 35.1279 306.471H189.6C190.758 306.468 191.867 305.869 192.686 304.806C193.505 303.743 193.966 302.301 193.968 300.797V18.7556C193.966 17.2517 193.505 15.8102 192.686 14.7468C191.867 13.6835 190.758 13.0848 189.6 13.0821H35.1279Z" fill="#EBEBEB"/>
<path d="M362.648 306.731H208.168C206.957 306.728 205.796 306.102 204.94 304.99C204.084 303.878 203.602 302.37 203.6 300.797V18.7556C203.612 17.1918 204.099 15.6976 204.954 14.5967C205.809 13.4958 206.964 12.8769 208.168 12.8743H362.648C363.85 12.8797 365.001 13.5001 365.854 14.601C366.706 15.7019 367.189 17.1946 367.2 18.7556V300.797C367.2 302.367 366.721 303.873 365.868 304.985C365.014 306.098 363.857 306.725 362.648 306.731V306.731ZM208.168 13.0821C207.01 13.0848 205.9 13.6835 205.082 14.7468C204.263 15.8102 203.802 17.2517 203.8 18.7556V300.797C203.802 302.301 204.263 303.743 205.082 304.806C205.9 305.869 207.01 306.468 208.168 306.471H362.648C363.806 306.468 364.915 305.869 365.734 304.806C366.553 303.743 367.014 302.301 367.016 300.797V18.7556C367.014 17.2517 366.553 15.8102 365.734 14.7468C364.915 13.6835 363.806 13.0848 362.648 13.0821H208.168Z" fill="#EBEBEB"/>
<path d="M251.24 353.074H252.432L252.432 35.9632H251.24L251.24 353.074Z" fill="#F0F0F0"/>
<path d="M39.5842 353.074L251.232 353.074L251.232 35.9632L39.5842 35.9632L39.5842 353.074Z" fill="#F5F5F5"/>
<path d="M241.824 353.085L241.824 42.1145L150.088 42.1145V353.085H241.824Z" fill="#FAFAFA"/>
<path d="M229.032 353.075L199.6 42.1045H191.784L221.208 353.075H229.032Z" fill="white"/>
<path d="M216.44 353.075L187.016 42.1045H169.496L198.928 353.075H216.44Z" fill="white"/>
<path d="M140.736 353.075L140.736 42.1045L49.0001 42.1045L49.0001 353.075H140.736Z" fill="#FAFAFA"/>
<path d="M125.784 353.075L96.352 42.1045H78.656L108.08 353.075H125.784Z" fill="white"/>
<path d="M103.312 353.075L73.8879 42.1045H56.3679L85.7999 353.075H103.312Z" fill="white"/>
<path d="M343.016 56.1737C340.457 56.1737 337.956 55.1883 335.829 53.342C333.702 51.4958 332.044 48.8716 331.065 45.8014C330.085 42.7312 329.829 39.3529 330.328 36.0936C330.828 32.8343 332.06 29.8404 333.869 27.4906C335.678 25.1408 337.983 23.5405 340.492 22.8922C343.001 22.2439 345.602 22.5766 347.966 23.8483C350.33 25.1201 352.35 27.2736 353.772 30.0367C355.193 32.7998 355.952 36.0484 355.952 39.3715C355.945 43.8252 354.581 48.0941 352.156 51.2434C349.731 54.3926 346.445 56.1655 343.016 56.1737V56.1737ZM343.016 23.6084C340.616 23.6084 338.269 24.5329 336.273 26.265C334.278 27.9971 332.722 30.4589 331.804 33.3393C330.885 36.2196 330.645 39.389 331.113 42.4467C331.581 45.5045 332.737 48.3132 334.434 50.5177C336.132 52.7222 338.294 54.2235 340.648 54.8317C343.002 55.4399 345.443 55.1278 347.66 53.9347C349.878 52.7416 351.773 50.7212 353.107 48.129C354.44 45.5368 355.152 42.4892 355.152 39.3715C355.148 35.1926 353.868 31.1864 351.593 28.2314C349.318 25.2765 346.233 23.6139 343.016 23.6084V23.6084Z" fill="#EBEBEB"/>
<path d="M271.496 331.534H352.664C353.27 331.536 353.861 331.784 354.354 332.242C354.847 332.7 355.218 333.346 355.416 334.09L360.408 353.075H263.744L268.736 334.09C268.934 333.344 269.306 332.697 269.801 332.239C270.296 331.781 270.888 331.534 271.496 331.534Z" fill="#EBEBEB"/>
<path d="M274.552 331.524H349.6V218.148H274.552V331.524Z" fill="#EBEBEB"/>
<path d="M274.552 331.524H349.6V328.521H274.552V331.524Z" fill="#E6E6E6"/>
<path d="M279.208 218.158H344.944V44.0473H279.208V218.158Z" fill="#F5F5F5"/>
<path d="M275.872 222.429H348.28C349.53 222.429 350.544 221.112 350.544 219.488V216.828C350.544 215.204 349.53 213.887 348.28 213.887H275.872C274.622 213.887 273.608 215.204 273.608 216.828V219.488C273.608 221.112 274.622 222.429 275.872 222.429Z" fill="#E6E6E6"/>
<path d="M274.552 43.642H349.6L347.304 25.9774C346.36 18.7208 343.469 12.1321 339.144 7.37773C334.819 2.62336 329.338 0.00991176 323.672 0H300.472C294.806 0.00991176 289.325 2.62336 285 7.37773C280.675 12.1321 277.785 18.7208 276.84 25.9774L274.552 43.642Z" fill="#EBEBEB"/>
<path d="M275.872 47.9128L348.28 47.9128C349.53 47.9128 350.544 46.5963 350.544 44.9722V42.3121C350.544 40.688 349.53 39.3715 348.28 39.3715L275.872 39.3715C274.622 39.3715 273.608 40.688 273.608 42.3121V44.9722C273.608 46.5963 274.622 47.9128 275.872 47.9128Z" fill="#E6E6E6"/>
<path d="M327.808 111.37C329.328 120.546 314.776 117.065 314.072 106.539C317.224 95.1813 327.44 101.042 327.808 111.37Z" fill="#FAFAFA"/>
<path d="M315.288 79.3765C313.896 75.667 320.256 75.137 321.56 79.3765C321.304 84.7487 316.304 83.7823 315.288 79.3765Z" fill="#FAFAFA"/>
<path d="M322.848 183.899C323.448 180.138 329.776 185.292 327.136 189.687C324.24 191.599 321.856 188.949 322.848 183.899Z" fill="#FAFAFA"/>
<path d="M302.264 91.7731C303.104 96.7296 299.296 103.266 293.288 101.239C281.528 99.5975 298.504 45.7827 302.264 91.7731Z" fill="#FAFAFA"/>
<path d="M306.248 159.906C308.368 174.454 326.072 161.839 329.184 151.542C328.96 106.185 300.904 132.589 306.248 159.906Z" fill="#FAFAFA"/>
<path d="M291.664 140.611C290.64 139.779 290.264 140.216 291.664 140.611C294.12 142.19 289.6 145.629 291.664 140.611Z" fill="#FAFAFA"/>
<path d="M329.384 171.7C330.856 173.404 324.808 174.558 327.784 170.807C328.376 170.88 328.936 171.193 329.384 171.7V171.7Z" fill="#FAFAFA"/>
<path d="M334.12 64.6109C335.464 65.7747 330.184 68.5907 331.248 62.5327C332.192 61.982 332.736 62.1171 334.12 64.6109Z" fill="#FAFAFA"/>
<path d="M331.944 249.009C331.943 250.262 332.227 251.486 332.762 252.529C333.297 253.571 334.057 254.384 334.948 254.864C335.839 255.344 336.819 255.47 337.765 255.226C338.71 254.983 339.579 254.38 340.261 253.494C340.943 252.609 341.407 251.48 341.595 250.251C341.783 249.023 341.685 247.75 341.316 246.593C340.946 245.436 340.32 244.448 339.518 243.754C338.715 243.059 337.772 242.689 336.808 242.691C335.518 242.691 334.281 243.357 333.369 244.542C332.457 245.727 331.944 247.334 331.944 249.009V249.009Z" fill="#F5F5F5"/>
<path d="M314.936 249.009C314.934 250.262 315.219 251.486 315.754 252.529C316.288 253.571 317.049 254.384 317.94 254.864C318.83 255.344 319.811 255.47 320.757 255.226C321.702 254.983 322.571 254.38 323.253 253.494C323.935 252.609 324.399 251.48 324.587 250.251C324.775 249.023 324.677 247.75 324.308 246.593C323.938 245.436 323.312 244.448 322.51 243.754C321.707 243.059 320.764 242.689 319.8 242.691C318.51 242.691 317.273 243.357 316.361 244.542C315.448 245.727 314.936 247.334 314.936 249.009Z" fill="#F5F5F5"/>
<path d="M302.792 255.327C305.479 255.327 307.656 252.498 307.656 249.009C307.656 245.52 305.479 242.691 302.792 242.691C300.106 242.691 297.928 245.52 297.928 249.009C297.928 252.498 300.106 255.327 302.792 255.327Z" fill="#F5F5F5"/>
<path d="M279.816 293.368C277.257 293.368 274.756 292.382 272.628 290.535C270.501 288.689 268.843 286.064 267.864 282.993C266.885 279.922 266.629 276.543 267.129 273.284C267.629 270.024 268.862 267.03 270.672 264.681C272.482 262.332 274.787 260.732 277.297 260.085C279.807 259.438 282.408 259.772 284.772 261.045C287.135 262.319 289.155 264.474 290.576 267.238C291.996 270.003 292.753 273.252 292.752 276.576C292.748 281.03 291.383 285.299 288.958 288.447C286.533 291.595 283.245 293.365 279.816 293.368V293.368ZM279.816 260.813C277.416 260.813 275.069 261.737 273.073 263.469C271.078 265.202 269.522 267.663 268.604 270.544C267.685 273.424 267.445 276.594 267.913 279.651C268.381 282.709 269.537 285.518 271.234 287.722C272.932 289.927 275.094 291.428 277.448 292.036C279.802 292.644 282.243 292.332 284.46 291.139C286.678 289.946 288.573 287.926 289.907 285.334C291.24 282.741 291.952 279.694 291.952 276.576C291.948 272.397 290.668 268.391 288.393 265.436C286.118 262.481 283.033 260.818 279.816 260.813V260.813Z" fill="#EBEBEB"/>
<path d="M347.88 348.326C345.32 348.33 342.818 347.348 340.688 345.503C338.558 343.659 336.898 341.036 335.917 337.966C334.935 334.895 334.677 331.516 335.175 328.255C335.673 324.994 336.905 321.998 338.714 319.646C340.523 317.295 342.829 315.693 345.339 315.045C347.85 314.396 350.452 314.729 352.816 316.001C355.181 317.274 357.201 319.429 358.623 322.194C360.044 324.959 360.802 328.21 360.8 331.534C360.796 335.984 359.433 340.25 357.012 343.398C354.59 346.545 351.306 348.318 347.88 348.326ZM347.88 315.771C345.479 315.767 343.131 316.688 341.133 318.417C339.135 320.147 337.577 322.607 336.656 325.487C335.735 328.367 335.493 331.537 335.959 334.596C336.426 337.656 337.58 340.466 339.277 342.673C340.974 344.879 343.136 346.383 345.49 346.993C347.845 347.603 350.286 347.292 352.505 346.099C354.723 344.907 356.619 342.886 357.954 340.294C359.288 337.701 360 334.653 360 331.534C359.998 327.358 358.721 323.353 356.449 320.398C354.177 317.443 351.095 315.779 347.88 315.771V315.771Z" fill="#EBEBEB"/>
<path d="M283.56 290.614C281.002 290.614 278.5 289.629 276.373 287.783C274.246 285.936 272.588 283.312 271.609 280.242C270.63 277.172 270.373 273.794 270.873 270.534C271.372 267.275 272.604 264.281 274.413 261.931C276.222 259.581 278.527 257.981 281.036 257.333C283.546 256.685 286.147 257.017 288.51 258.289C290.874 259.561 292.895 261.714 294.316 264.477C295.737 267.241 296.496 270.489 296.496 273.812C296.492 278.267 295.128 282.537 292.702 285.687C290.277 288.837 286.99 290.609 283.56 290.614V290.614ZM283.56 258.049C281.16 258.049 278.813 258.974 276.818 260.706C274.822 262.438 273.266 264.9 272.348 267.78C271.429 270.66 271.189 273.83 271.657 276.887C272.125 279.945 273.281 282.754 274.979 284.958C276.676 287.163 278.838 288.664 281.192 289.272C283.547 289.881 285.987 289.568 288.204 288.375C290.422 287.182 292.317 285.162 293.651 282.57C294.984 279.977 295.696 276.93 295.696 273.812C295.683 269.641 294.399 265.647 292.125 262.703C289.851 259.758 286.771 258.104 283.56 258.101V258.049Z" fill="#EBEBEB"/>
<g opacity="0.3">
<path d="M290.904 47.9128H303.408L320.232 213.877H307.736L290.904 47.9128Z" fill="white"/>
<path d="M306.336 47.9128H313.144L329.968 213.877H323.16L306.336 47.9128Z" fill="white"/>
</g>
<path d="M200 400C285.666 400 355.112 394.734 355.112 388.238C355.112 381.741 285.666 376.475 200 376.475C114.334 376.475 44.8879 381.741 44.8879 388.238C44.8879 394.734 114.334 400 200 400Z" fill="#F5F5F5"/>
<path d="M210.216 161.351L205.84 153.88L204.352 162.504C204.352 162.504 207.552 166.193 210.184 164.936L210.216 161.351Z" fill="#FFC3BD"/>
<path d="M200.4 152.03L199.456 159.335L205.224 163.356L205.84 153.88L200.4 152.03Z" fill="#FFC3BD"/>
<path d="M246.952 138.771C246.432 139.665 245.824 140.787 245.296 141.889C244.768 142.99 244.2 144.06 243.696 145.162C242.632 147.375 241.616 149.64 240.648 151.937C239.68 154.233 238.744 156.561 237.872 158.919C237 161.278 236.144 163.668 235.352 166.068L235.032 167.024C234.86 167.541 234.665 168.044 234.448 168.531C233.745 170.13 232.797 171.526 231.664 172.632C230.53 173.738 229.234 174.531 227.856 174.963C226.335 175.415 224.771 175.562 223.216 175.399C221.898 175.259 220.592 174.97 219.312 174.537C217 173.773 214.741 172.758 212.56 171.503C211.504 170.91 210.456 170.297 209.432 169.643C208.912 169.321 208.4 168.988 207.888 168.604C207.376 168.219 206.896 167.959 206.288 167.492L212.576 155.449C212.808 155.729 213.232 156.155 213.584 156.488L214.72 157.527C215.52 158.192 216.32 158.857 217.12 159.449C218.644 160.6 220.252 161.554 221.92 162.296C223.114 162.891 224.398 163.119 225.672 162.961C225.856 162.936 226.032 162.85 226.184 162.712C226.252 162.618 226.311 162.513 226.36 162.4C226.405 162.303 226.445 162.203 226.48 162.099L226.784 161.195C228.48 156.11 230.264 151.085 232.136 146.118C233.08 143.624 234.04 141.151 235.024 138.678C235.512 137.441 236.016 136.205 236.528 134.968C237.04 133.732 237.536 132.537 238.128 131.165L246.952 138.771Z" fill="#407BFF"/>
<path opacity="0.8" d="M246.952 138.771C246.432 139.665 245.824 140.787 245.296 141.889C244.768 142.99 244.2 144.06 243.696 145.162C242.632 147.375 241.616 149.64 240.648 151.937C239.68 154.233 238.744 156.561 237.872 158.919C237 161.278 236.144 163.668 235.352 166.068L235.032 167.024C234.86 167.541 234.665 168.044 234.448 168.531C233.745 170.13 232.797 171.526 231.664 172.632C230.53 173.738 229.234 174.531 227.856 174.963C226.335 175.415 224.771 175.562 223.216 175.399C221.898 175.259 220.592 174.97 219.312 174.537C217 173.773 214.741 172.758 212.56 171.503C211.504 170.91 210.456 170.297 209.432 169.643C208.912 169.321 208.4 168.988 207.888 168.604C207.376 168.219 206.896 167.959 206.288 167.492L212.576 155.449C212.808 155.729 213.232 156.155 213.584 156.488L214.72 157.527C215.52 158.192 216.32 158.857 217.12 159.449C218.644 160.6 220.252 161.554 221.92 162.296C223.114 162.891 224.398 163.119 225.672 162.961C225.856 162.936 226.032 162.85 226.184 162.712C226.252 162.618 226.311 162.513 226.36 162.4C226.405 162.303 226.445 162.203 226.48 162.099L226.784 161.195C228.48 156.11 230.264 151.085 232.136 146.118C233.08 143.624 234.04 141.151 235.024 138.678C235.512 137.441 236.016 136.205 236.528 134.968C237.04 133.732 237.536 132.537 238.128 131.165L246.952 138.771Z" fill="white"/>
<path d="M254.592 113.033C253.976 107.287 257.064 93.4253 258.472 90.6198C259.88 87.8142 261.088 87.2947 263.84 89.3105C266.592 91.3263 270.048 106.185 267.344 112.326C264.64 118.468 255.544 121.917 254.592 113.033Z" fill="#263238"/>
<path d="M261.272 116.327C261.112 116.337 260.952 116.337 260.792 116.327C258.696 116.098 257.232 114.353 256.672 111.402C255.6 105.822 257.472 91.5964 258.704 88.3959C259.936 85.1955 261.312 84.6136 264.192 86.2242C265.528 86.9828 267.248 90.2663 268.56 94.6097C269.872 98.9532 270.96 105.229 269.672 108.98C268.296 113.012 264.472 116.327 261.272 116.327ZM261.632 85.8294C260.528 85.8294 259.808 86.7022 259.064 88.5934C257.856 91.7107 256.024 105.884 257.056 111.235C257.728 114.727 259.456 115.631 260.824 115.776C263.904 116.119 267.952 112.763 269.304 108.741C270.512 105.136 269.52 99.161 268.184 94.7656C266.928 90.6092 265.256 87.3672 264.032 86.671C263.273 86.1826 262.446 85.8964 261.6 85.8294H261.632Z" fill="#263238"/>
<path d="M279.64 88.406C276.664 95.077 270.384 93.6015 268.056 92.9884C265.728 92.3754 264.744 91.3467 264.16 88.219C263.576 85.0913 268.328 74.7107 274.256 75.1471C279.2 75.5108 282.032 83.0443 279.64 88.406Z" fill="#263238"/>
<path d="M266.496 89.7673C266.457 89.7662 266.419 89.751 266.387 89.7235C266.354 89.6959 266.328 89.6571 266.312 89.6114C265.656 87.6268 265.624 82.6287 267.296 78.7737C267.844 77.4395 268.631 76.2958 269.59 75.4388C270.549 74.5817 271.653 74.0363 272.808 73.8483C273.897 73.627 275.012 73.778 276.043 74.2863C277.074 74.7946 277.986 75.6428 278.688 76.7474C278.724 76.796 278.745 76.8613 278.745 76.9293C278.745 76.9973 278.724 77.0625 278.688 77.1111C278.67 77.136 278.648 77.1558 278.624 77.1693C278.6 77.1828 278.574 77.1898 278.548 77.1898C278.522 77.1898 278.496 77.1828 278.472 77.1693C278.447 77.1558 278.426 77.136 278.408 77.1111C277.748 76.0763 276.892 75.2823 275.924 74.8068C274.956 74.3313 273.91 74.1908 272.888 74.3991C271.792 74.5678 270.744 75.0795 269.834 75.8904C268.924 76.7013 268.179 77.787 267.664 79.0542C266 82.8989 266.152 87.7826 266.704 89.4452C266.714 89.4765 266.72 89.5103 266.721 89.5446C266.721 89.5788 266.716 89.6129 266.707 89.6447C266.697 89.6766 266.683 89.7057 266.664 89.7303C266.646 89.7549 266.624 89.7745 266.6 89.7881L266.496 89.7673Z" fill="#263238"/>
<path d="M254.672 91.7212C254.672 94.8384 252.272 101.78 251.384 103.151C250.496 104.523 249.784 104.658 248.496 103.338C247.208 102.019 246.176 93.8929 247.936 90.921C249.696 87.9492 254.672 86.9725 254.672 91.7212Z" fill="#263238"/>
<path d="M254.2 378.065H247.504L247.064 357.938H253.752L254.2 378.065Z" fill="#FFC3BD"/>
<path d="M288.968 374.002L282.336 375.135L278.176 355.558L284.808 354.415L288.968 374.002Z" fill="#FFC3BD"/>
<path d="M281.448 373.586L288.648 370.895C288.771 370.842 288.905 370.851 289.024 370.92C289.142 370.99 289.237 371.114 289.288 371.269L291.752 378.387C291.808 378.569 291.834 378.764 291.829 378.96C291.823 379.156 291.786 379.349 291.72 379.525C291.654 379.701 291.559 379.857 291.444 379.983C291.328 380.11 291.193 380.203 291.048 380.257C288.52 381.14 287.264 381.4 284.088 382.585C282.128 383.312 279.336 384.663 276.64 385.65C273.944 386.637 273.024 383.25 274.08 382.533C278.808 379.249 279.176 377.005 280.48 374.521C280.708 374.071 281.051 373.74 281.448 373.586Z" fill="#263238"/>
<path d="M247.28 377.057H254.792C254.921 377.055 255.047 377.114 255.145 377.223C255.244 377.332 255.309 377.483 255.328 377.649L256.184 385.38C256.201 385.575 256.186 385.773 256.14 385.96C256.093 386.146 256.017 386.318 255.916 386.464C255.814 386.609 255.69 386.725 255.551 386.803C255.413 386.882 255.263 386.921 255.112 386.918C252.488 386.866 251.232 386.658 247.912 386.658C245.88 386.658 241.68 386.939 238.872 386.939C236.064 386.939 235.912 383.333 237.08 383.001C242.32 381.536 244.384 379.52 246.152 377.597C246.466 377.249 246.866 377.057 247.28 377.057V377.057Z" fill="#263238"/>
<path opacity="0.2" d="M247.064 357.948L247.288 368.318H253.984L253.752 357.948H247.064Z" fill="black"/>
<path opacity="0.2" d="M284.808 354.425L278.176 355.558L280.328 365.658L286.96 364.515L284.808 354.425Z" fill="black"/>
<path d="M239.28 130.012C239.28 130.012 236.08 131.466 242.48 182.455H269.68C269.224 168.094 269.208 159.241 274.48 129.762C270.677 128.741 266.821 128.081 262.944 127.788C258.837 127.403 254.715 127.403 250.608 127.788C245.288 128.411 239.28 130.012 239.28 130.012Z" fill="#407BFF"/>
<path d="M261.704 109.739C260.904 114.934 260.152 124.349 262.928 127.788C262.928 127.788 261.84 132.984 254.464 132.984C246.352 132.984 250.592 127.788 250.592 127.788C255.016 126.416 254.904 122.146 254.128 118.145L261.704 109.739Z" fill="#FFC3BD"/>
<path opacity="0.2" d="M258.616 113.168L254.136 118.135C254.326 119.067 254.452 120.02 254.512 120.982C256.208 120.66 258.512 118.249 258.704 115.953C258.808 115.025 258.778 114.081 258.616 113.168V113.168Z" fill="black"/>
<path d="M265.368 100.533C263.816 108.918 263.304 112.514 259.416 116.119C253.576 121.533 245.984 117.231 245.568 108.409C245.2 100.47 247.792 88.0949 254.64 86.1829C256.146 85.7528 257.713 85.8297 259.19 86.4062C260.667 86.9826 262.006 88.0396 263.081 89.477C264.156 90.9143 264.93 92.6843 265.33 94.6192C265.73 96.554 265.743 98.5896 265.368 100.533V100.533Z" fill="#FFC3BD"/>
<path d="M268.576 96.9163C266.352 95.711 262.024 89.1647 261.328 87.2216C260.632 85.2784 260.712 84.1043 262.072 82.5664C263.432 81.0285 268.8 81.4546 271.2 86.5565C273.024 90.37 272 98.7763 268.576 96.9163Z" fill="#407BFF"/>
<path d="M264.968 104.232C261.768 102.486 255.52 93.0614 254.512 90.2455C253.504 87.4295 253.624 85.8293 255.584 83.5329C257.544 81.2365 265.24 81.86 268.768 89.2895C271.384 94.7967 269.928 106.913 264.968 104.232Z" fill="#263238"/>
<path d="M242.48 182.455C242.48 182.455 237.2 249.394 237.64 275.891C238.096 303.447 245.872 366.292 245.872 366.292H254.92C254.92 366.292 253.488 305.037 254.288 277.969C255.2 248.479 262.4 182.455 262.4 182.455H242.48Z" fill="#407BFF"/>
<path d="M255.704 366.728H245.088L244.304 362.333L256.192 361.792L255.704 366.728Z" fill="#407BFF"/>
<path opacity="0.3" d="M255.704 366.728H245.088L244.304 362.333L256.192 361.792L255.704 366.728Z" fill="black"/>
<path opacity="0.2" d="M254.2 199.112C247.52 216.537 252.856 248.354 255.2 260.179C256.408 242.411 258.448 220.694 260.04 204.723C259.048 195.755 257.272 191.069 254.2 199.112Z" fill="black"/>
<path d="M249.648 182.455C249.648 182.455 255.808 252.075 260.456 274.384C265.976 300.912 278.52 363.944 278.52 363.944L287.568 362.385C287.568 362.385 279.504 292.277 276.84 277.667C271.144 246.495 276.84 201.917 269.64 182.455H249.648Z" fill="#407BFF"/>
<path d="M288.672 362.821L277.448 364.744L275.792 360.369L288.904 357.335L288.672 362.821Z" fill="#407BFF"/>
<path opacity="0.3" d="M288.672 362.821L277.448 364.744L275.792 360.369L288.904 357.335L288.672 362.821Z" fill="black"/>
<path d="M255.144 100.647C255.056 101.333 254.696 101.832 254.344 101.749C253.992 101.665 253.784 101.042 253.88 100.356C253.976 99.6704 254.328 99.1716 254.68 99.2444C255.032 99.3171 255.24 99.9509 255.144 100.647Z" fill="#263238"/>
<path d="M249.136 99.2755C249.048 99.9613 248.688 100.46 248.336 100.377C247.984 100.294 247.784 99.6704 247.872 98.9846C247.96 98.2988 248.328 97.8 248.672 97.8728C249.016 97.9455 249.232 98.5793 249.136 99.2755Z" fill="#263238"/>
<path d="M248.8 97.9565L247.584 97.1765C247.584 97.1765 248.096 98.6222 248.8 97.9565Z" fill="#263238"/>
<path d="M250.568 100.823C249.883 102.288 249.046 103.624 248.08 104.793C248.317 105.105 248.604 105.347 248.92 105.502C249.237 105.656 249.575 105.719 249.912 105.686L250.568 100.823Z" fill="#ED847E"/>
<path d="M252.312 108.939C252.009 108.938 251.707 108.903 251.408 108.835C251.367 108.825 251.33 108.794 251.306 108.749C251.283 108.705 251.273 108.65 251.28 108.596C251.288 108.542 251.312 108.495 251.346 108.464C251.38 108.433 251.423 108.421 251.464 108.43C252.123 108.6 252.803 108.566 253.45 108.329C254.096 108.093 254.691 107.661 255.184 107.068C255.214 107.03 255.254 107.009 255.296 107.009C255.338 107.009 255.378 107.03 255.408 107.068C255.424 107.087 255.436 107.109 255.444 107.134C255.453 107.159 255.457 107.187 255.457 107.214C255.457 107.241 255.453 107.268 255.444 107.293C255.436 107.318 255.424 107.341 255.408 107.359C254.573 108.388 253.463 108.954 252.312 108.939Z" fill="#263238"/>
<path d="M266.704 106.393C266.052 107.833 264.988 108.879 263.744 109.303C262.096 109.843 261.344 107.921 261.808 105.925C262.248 104.128 263.648 101.686 265.28 102.029C265.637 102.111 265.973 102.308 266.256 102.601C266.54 102.895 266.762 103.275 266.904 103.709C267.045 104.143 267.101 104.615 267.066 105.084C267.031 105.553 266.907 106.003 266.704 106.393Z" fill="#FFC3BD"/>
<path d="M257.296 98.2778C257.255 98.2617 257.217 98.235 257.184 98.1993C257.151 98.1636 257.123 98.1196 257.104 98.07C256.936 97.6003 256.685 97.1893 256.37 96.8712C256.056 96.5531 255.688 96.3371 255.296 96.2412C255.255 96.2348 255.215 96.2178 255.179 96.1913C255.143 96.1648 255.111 96.1292 255.086 96.0866C255.061 96.0441 255.042 95.9954 255.032 95.9434C255.021 95.8915 255.018 95.8373 255.024 95.784C255.028 95.7307 255.04 95.6789 255.059 95.6317C255.079 95.5845 255.105 95.5427 255.137 95.5089C255.169 95.4751 255.206 95.4499 255.246 95.4346C255.285 95.4194 255.327 95.4146 255.368 95.4203C255.864 95.5321 256.333 95.7972 256.733 96.1933C257.134 96.5893 257.456 97.1046 257.672 97.6959C257.708 97.7955 257.714 97.9096 257.687 98.0142C257.66 98.1189 257.603 98.2059 257.528 98.257C257.455 98.2996 257.373 98.307 257.296 98.2778V98.2778Z" fill="#263238"/>
<path d="M246.952 95.0565C246.912 95.058 246.872 95.0487 246.835 95.029C246.797 95.0093 246.764 94.9797 246.736 94.9422C246.706 94.9044 246.682 94.8592 246.666 94.8092C246.65 94.7592 246.641 94.7055 246.641 94.6512C246.641 94.597 246.65 94.5432 246.666 94.4933C246.682 94.4433 246.706 94.3981 246.736 94.3603C247.077 93.8807 247.5 93.5123 247.972 93.2848C248.443 93.0574 248.948 92.9773 249.448 93.051C249.53 93.0735 249.603 93.1375 249.649 93.2289C249.696 93.3204 249.712 93.432 249.696 93.5394C249.688 93.5921 249.673 93.6423 249.65 93.687C249.627 93.7318 249.598 93.7703 249.564 93.8003C249.529 93.8302 249.491 93.8511 249.451 93.8616C249.41 93.8721 249.368 93.8721 249.328 93.8615C248.934 93.8044 248.535 93.8687 248.164 94.0492C247.793 94.2298 247.46 94.5215 247.192 94.9006C247.163 94.9476 247.127 94.9859 247.085 95.0128C247.044 95.0397 246.998 95.0546 246.952 95.0565V95.0565Z" fill="#263238"/>
<path d="M278.16 375.831C278.048 375.728 277.954 375.594 277.885 375.44C277.816 375.286 277.773 375.115 277.76 374.937C277.743 374.813 277.751 374.686 277.783 374.568C277.816 374.45 277.871 374.344 277.944 374.262C278.592 373.545 280.904 374.449 281.144 374.563C281.173 374.573 281.199 374.594 281.219 374.624C281.239 374.654 281.252 374.69 281.256 374.729C281.26 374.77 281.254 374.812 281.24 374.849C281.226 374.886 281.204 374.917 281.176 374.937C280.376 375.498 278.984 376.381 278.224 375.893L278.16 375.831ZM280.704 374.792C279.776 374.47 278.488 374.179 278.144 374.553C278.112 374.59 278.089 374.638 278.078 374.691C278.067 374.745 278.067 374.801 278.08 374.854C278.083 374.987 278.112 375.116 278.166 375.229C278.219 375.342 278.294 375.435 278.384 375.498C278.8 375.789 279.648 375.519 280.704 374.812V374.792Z" fill="#407BFF"/>
<path d="M280.072 374.324C279.424 373.784 278.784 373.004 278.744 372.371C278.731 372.209 278.763 372.046 278.833 371.912C278.903 371.777 279.008 371.678 279.128 371.633C279.237 371.563 279.358 371.527 279.48 371.527C279.602 371.527 279.722 371.563 279.832 371.633C280.704 372.173 281.256 374.573 281.272 374.677C281.285 374.707 281.292 374.741 281.292 374.776C281.292 374.811 281.285 374.845 281.272 374.875C281.252 374.9 281.228 374.919 281.202 374.93C281.175 374.94 281.147 374.943 281.12 374.937C280.749 374.803 280.395 374.596 280.072 374.324ZM279.784 372.09C279.757 372.063 279.728 372.042 279.696 372.028C279.627 371.985 279.552 371.962 279.476 371.962C279.4 371.962 279.324 371.985 279.256 372.028C279.064 372.132 279.048 372.256 279.056 372.36C279.096 372.963 280.128 374.044 280.872 374.438C280.678 373.543 280.302 372.732 279.784 372.09V372.09Z" fill="#407BFF"/>
<path d="M244.8 378.574C244.236 378.633 243.673 378.446 243.2 378.044C243.09 377.915 243.006 377.753 242.956 377.571C242.906 377.39 242.891 377.196 242.912 377.005C242.918 376.892 242.946 376.784 242.994 376.689C243.042 376.595 243.107 376.517 243.184 376.465C243.984 375.883 246.672 377.649 246.968 377.847C246.999 377.866 247.024 377.898 247.04 377.937C247.055 377.976 247.061 378.021 247.056 378.065C247.051 378.107 247.036 378.146 247.013 378.176C246.99 378.205 246.96 378.225 246.928 378.231C246.229 378.437 245.516 378.552 244.8 378.574V378.574ZM243.608 376.776C243.506 376.773 243.406 376.798 243.312 376.849C243.281 376.873 243.256 376.907 243.238 376.946C243.22 376.986 243.209 377.031 243.208 377.078C243.192 377.198 243.201 377.322 243.233 377.437C243.266 377.551 243.32 377.653 243.392 377.732C243.792 378.21 244.896 378.294 246.376 377.971C245.502 377.368 244.555 376.964 243.576 376.776H243.608Z" fill="#407BFF"/>
<path d="M246.84 378.273H246.776C245.976 377.805 244.376 375.935 244.528 374.948C244.528 374.709 244.68 374.428 245.12 374.366C245.277 374.342 245.437 374.361 245.589 374.422C245.74 374.483 245.88 374.584 246 374.719C246.84 375.633 246.992 377.971 247 378.065C247.001 378.1 246.995 378.135 246.984 378.168C246.973 378.2 246.957 378.229 246.936 378.252C246.907 378.272 246.873 378.28 246.84 378.273V378.273ZM245.24 374.75H245.144C244.856 374.75 244.832 374.948 244.832 374.989C244.752 375.581 245.824 377.067 246.64 377.701C246.576 376.714 246.277 375.777 245.784 375.02C245.637 374.847 245.446 374.751 245.248 374.75H245.24Z" fill="#407BFF"/>
<path d="M270.056 180.387L270.752 183.505C270.84 183.744 270.616 183.993 270.304 183.993H242.344C242.096 183.993 241.896 183.837 241.88 183.64L241.632 180.522C241.632 180.304 241.832 180.117 242.096 180.117H269.6C269.688 180.107 269.776 180.126 269.856 180.173C269.936 180.221 270.005 180.294 270.056 180.387V180.387Z" fill="#263238"/>
<path d="M266.4 184.377H267.136C267.28 184.377 267.392 184.283 267.384 184.159L267.04 180.002C267.04 179.888 266.896 179.784 266.752 179.784H266.016C265.872 179.784 265.76 179.888 265.768 180.002L266.112 184.159C266.08 184.325 266.208 184.377 266.4 184.377Z" fill="#407BFF"/>
<path d="M244.416 184.377H245.152C245.296 184.377 245.408 184.283 245.4 184.159L245.056 180.002C245.056 179.888 244.912 179.784 244.768 179.784H244C243.856 179.784 243.744 179.888 243.752 180.002L244.096 184.159C244.136 184.325 244.264 184.377 244.416 184.377Z" fill="#407BFF"/>
<path d="M255.384 184.377H256.12C256.272 184.377 256.384 184.283 256.368 184.159L256.024 180.002C256.024 179.888 255.888 179.784 255.744 179.784H255C254.856 179.784 254.744 179.888 254.752 180.002L255.104 184.159C255.112 184.325 255.24 184.377 255.384 184.377Z" fill="#407BFF"/>
<path d="M254.832 99.3175L253.624 98.5479C253.624 98.5479 254.104 99.9935 254.832 99.3175Z" fill="#263238"/>
<path d="M250.768 126.832C247.568 127.092 240.128 127.778 238.488 129.596C236.848 131.414 236.256 167.43 237.6 180.169C238.944 192.908 234.136 304.102 236.4 325.237C254.8 323.502 258.712 324.021 258.712 324.021L259.408 317.61L261.376 324.198C261.376 324.198 281.576 321.881 285.976 323.959C285.84 303.177 278.288 201.699 272.288 180.917C274.288 154.94 276.952 130.687 275.624 128.786C274.296 126.884 263.2 126.832 263.2 126.832C261.207 129.661 258.45 131.381 255.504 131.633C250.8 131.809 250.768 126.832 250.768 126.832Z" fill="#407BFF"/>
<path opacity="0.8" d="M250.768 126.832C247.568 127.092 240.128 127.778 238.488 129.596C236.848 131.414 236.256 167.43 237.6 180.169C238.944 192.908 234.136 304.102 236.4 325.237C254.8 323.502 258.712 324.021 258.712 324.021L259.408 317.61L261.376 324.198C261.376 324.198 281.576 321.881 285.976 323.959C285.84 303.177 278.288 201.699 272.288 180.917C274.288 154.94 276.952 130.687 275.624 128.786C274.296 126.884 263.2 126.832 263.2 126.832C261.207 129.661 258.45 131.381 255.504 131.633C250.8 131.809 250.768 126.832 250.768 126.832Z" fill="white"/>
<path opacity="0.2" d="M272.496 178.392L260.056 175.555C260.065 177.315 260.267 179.065 260.656 180.751C262.76 181.634 269.344 181.53 272.392 181.198L272.304 180.886L272.496 178.392Z" fill="#407BFF"/>
<path opacity="0.2" d="M271.368 144.112C271.368 148.913 272.08 157.028 273.824 162.38C274.304 156.789 274.76 151.573 275.128 147.001L271.368 144.112Z" fill="#407BFF"/>
<path opacity="0.2" d="M259.416 317.86C259.359 317.86 259.304 317.832 259.263 317.782C259.221 317.732 259.196 317.663 259.192 317.589C259.136 316.82 253.768 240.301 253.904 182.933C253.984 148.092 254.52 131.768 254.52 131.602C254.52 131.522 254.544 131.445 254.588 131.389C254.631 131.332 254.69 131.3 254.752 131.3C254.813 131.3 254.872 131.332 254.916 131.389C254.959 131.445 254.984 131.522 254.984 131.602C254.984 131.757 254.448 148.071 254.36 182.902C254.232 240.249 259.592 316.737 259.648 317.506C259.651 317.545 259.648 317.585 259.64 317.622C259.631 317.66 259.616 317.695 259.597 317.725C259.577 317.755 259.554 317.78 259.527 317.798C259.5 317.815 259.47 317.826 259.44 317.828L259.416 317.86Z" fill="#407BFF"/>
<path opacity="0.2" d="M272.872 192.357H272.768C268.828 189.817 265.748 185.477 264.12 180.169C264.108 180.131 264.102 180.09 264.103 180.048C264.104 180.007 264.111 179.966 264.125 179.929C264.138 179.892 264.157 179.858 264.181 179.831C264.205 179.803 264.233 179.783 264.263 179.77C264.293 179.757 264.325 179.752 264.357 179.756C264.388 179.76 264.419 179.772 264.447 179.792C264.475 179.812 264.499 179.839 264.518 179.872C264.538 179.904 264.552 179.942 264.56 179.982C266.148 185.138 269.145 189.352 272.976 191.817C273.003 191.834 273.027 191.857 273.047 191.886C273.067 191.915 273.082 191.949 273.092 191.986C273.102 192.023 273.106 192.062 273.104 192.101C273.101 192.139 273.093 192.177 273.08 192.212C273.06 192.26 273.029 192.299 272.993 192.325C272.956 192.351 272.914 192.362 272.872 192.357Z" fill="#407BFF"/>
<path opacity="0.2" d="M239.144 192.358C239.116 192.359 239.089 192.354 239.063 192.341C239.036 192.329 239.013 192.31 238.992 192.285C238.949 192.228 238.924 192.152 238.924 192.072C238.924 191.992 238.949 191.915 238.992 191.859C241.278 188.778 242.826 184.901 243.448 180.699C243.451 180.66 243.46 180.622 243.475 180.587C243.489 180.552 243.509 180.522 243.533 180.498C243.557 180.473 243.585 180.456 243.614 180.446C243.643 180.436 243.674 180.433 243.704 180.439C243.734 180.442 243.763 180.452 243.79 180.47C243.817 180.488 243.84 180.513 243.859 180.543C243.878 180.573 243.891 180.608 243.899 180.646C243.907 180.684 243.909 180.723 243.904 180.761C243.904 181 243.36 186.601 239.336 192.264C239.311 192.297 239.281 192.322 239.248 192.338C239.215 192.354 239.18 192.361 239.144 192.358V192.358Z" fill="#407BFF"/>
<path d="M256 185.977H238.304C237.9 185.964 237.512 185.766 237.21 185.418C236.907 185.07 236.708 184.595 236.648 184.076L233.496 152.498C233.465 152.26 233.475 152.017 233.525 151.785C233.576 151.553 233.665 151.339 233.786 151.157C233.908 150.975 234.059 150.831 234.229 150.734C234.398 150.637 234.583 150.59 234.768 150.596H252.496C252.9 150.61 253.287 150.808 253.59 151.156C253.893 151.504 254.092 151.979 254.152 152.498L257.304 184.076C257.335 184.317 257.325 184.564 257.273 184.799C257.221 185.034 257.129 185.251 257.003 185.433C256.878 185.616 256.723 185.76 256.549 185.854C256.376 185.948 256.188 185.99 256 185.977V185.977Z" fill="#263238"/>
<path d="M261.704 168.884L256.464 162.411L256.064 171.233C256.064 171.233 259.696 174.215 262.112 172.428L261.704 168.884Z" fill="#FFC3BD"/>
<path d="M250.872 161.715L250.84 169.123L257.024 171.898L256.464 162.411L250.872 161.715Z" fill="#FFC3BD"/>
<path d="M285.528 166.983L285.44 165.819C285.392 165.04 285.312 164.281 285.248 163.502C284.614 157.437 283.465 151.481 281.824 145.743C281.024 142.886 280.12 140.101 279.144 137.348C278.656 135.976 278.136 134.604 277.592 133.254L276.736 131.175L276.288 130.136C276.12 129.773 275.992 129.482 275.76 129.004L267.072 136.942C267.144 137.046 267.312 137.337 267.44 137.566L267.864 138.314C268.144 138.823 268.408 139.353 268.664 139.904C269.192 140.943 269.712 142.086 270.2 143.219C271.182 145.483 272.058 147.821 272.824 150.222C274.375 154.975 275.443 159.97 276 165.081C276.056 165.705 276.12 166.328 276.16 166.962L276.208 167.585H276.064C275.337 167.627 274.608 167.579 273.888 167.44C272.044 167.059 270.235 166.436 268.488 165.58C267.56 165.154 266.64 164.655 265.728 164.146L264.376 163.325C263.952 163.044 263.464 162.712 263.136 162.463L258.72 175.836C259.392 176.137 259.912 176.314 260.496 176.542L262.192 177.176C263.32 177.592 264.464 177.966 265.616 178.33C268.012 179.113 270.451 179.648 272.912 179.93C274.345 180.1 275.789 180.065 277.216 179.826C278.097 179.679 278.963 179.411 279.8 179.026C280.857 178.538 281.836 177.802 282.688 176.854C283.655 175.772 284.412 174.408 284.896 172.874C285.308 171.551 285.538 170.144 285.576 168.718C285.583 168.139 285.567 167.56 285.528 166.983V166.983Z" fill="#407BFF"/>
<path opacity="0.8" d="M285.528 166.983L285.44 165.819C285.392 165.04 285.312 164.281 285.248 163.502C284.614 157.437 283.465 151.481 281.824 145.743C281.024 142.886 280.12 140.101 279.144 137.348C278.656 135.976 278.136 134.604 277.592 133.254L276.736 131.175L276.288 130.136C276.12 129.773 275.992 129.482 275.76 129.004L267.072 136.942C267.144 137.046 267.312 137.337 267.44 137.566L267.864 138.314C268.144 138.823 268.408 139.353 268.664 139.904C269.192 140.943 269.712 142.086 270.2 143.219C271.182 145.483 272.058 147.821 272.824 150.222C274.375 154.975 275.443 159.97 276 165.081C276.056 165.705 276.12 166.328 276.16 166.962L276.208 167.585H276.064C275.337 167.627 274.608 167.579 273.888 167.44C272.044 167.059 270.235 166.436 268.488 165.58C267.56 165.154 266.64 164.655 265.728 164.146L264.376 163.325C263.952 163.044 263.464 162.712 263.136 162.463L258.72 175.836C259.392 176.137 259.912 176.314 260.496 176.542L262.192 177.176C263.32 177.592 264.464 177.966 265.616 178.33C268.012 179.113 270.451 179.648 272.912 179.93C274.345 180.1 275.789 180.065 277.216 179.826C278.097 179.679 278.963 179.411 279.8 179.026C280.857 178.538 281.836 177.802 282.688 176.854C283.655 175.772 284.412 174.408 284.896 172.874C285.308 171.551 285.538 170.144 285.576 168.718C285.583 168.139 285.567 167.56 285.528 166.983V166.983Z" fill="white"/>
<path d="M262.8 126.032C260.548 128.408 258.017 130.299 255.304 131.633C257.304 133.95 257.352 140.683 257.352 140.683C257.352 140.683 266 132.433 265.672 126.739C264.751 126.3 263.781 126.061 262.8 126.032V126.032Z" fill="white"/>
<path d="M250.992 126.624C251.141 127.688 251.489 128.688 252.005 129.536C252.521 130.384 253.19 131.054 253.952 131.487C251.952 133.794 251.008 139.26 251.008 139.26C251.008 139.26 246 132.454 248.328 126.915C249.176 126.487 250.101 126.386 250.992 126.624Z" fill="white"/>
<path d="M196.704 157.569C196.629 157.569 196.555 157.542 196.492 157.49C196.428 157.439 196.377 157.365 196.344 157.278C196.299 157.155 196.292 157.013 196.324 156.884C196.357 156.754 196.427 156.646 196.52 156.581L208.72 148.622C208.767 148.585 208.82 148.561 208.874 148.552C208.929 148.543 208.984 148.548 209.037 148.568C209.09 148.588 209.139 148.621 209.181 148.667C209.224 148.713 209.258 148.769 209.283 148.833C209.308 148.896 209.322 148.966 209.325 149.038C209.329 149.109 209.32 149.18 209.301 149.247C209.282 149.314 209.253 149.375 209.215 149.427C209.177 149.479 209.131 149.519 209.08 149.547L196.88 157.517C196.825 157.55 196.765 157.568 196.704 157.569V157.569Z" fill="#263238"/>
<path d="M248.984 88.7284C247.168 92.012 256.984 101.052 260.28 102.309C259.2 96.6775 256.232 75.6047 248.984 88.7284Z" fill="#263238"/>
<path d="M254.232 106.04C254.046 106.038 253.861 106.01 253.68 105.957C251.76 105.427 250.664 102.216 251.224 98.7972C251.784 95.3786 253.816 93.0406 255.728 93.6017C257.64 94.1628 258.744 97.3529 258.184 100.771C257.672 103.826 256 106.04 254.232 106.04ZM255.2 94.0485C253.664 94.0485 252.136 96.1267 251.672 98.9115C251.152 102.029 252.112 104.959 253.8 105.427C255.488 105.894 257.288 103.743 257.8 100.626L258.008 100.678L257.8 100.626C258.32 97.5087 257.36 94.5785 255.672 94.1109C255.517 94.0699 255.359 94.049 255.2 94.0485V94.0485Z" fill="white"/>
<path d="M246.52 104.564C246.335 104.566 246.149 104.542 245.968 104.492C244.048 103.951 242.952 100.741 243.512 97.322C243.748 95.7694 244.349 94.35 245.232 93.2591C245.588 92.7863 246.028 92.434 246.514 92.2329C246.999 92.0318 247.515 91.9882 248.016 92.1057C249.936 92.6357 251.032 95.8465 250.472 99.2651C249.96 102.351 248.256 104.564 246.52 104.564ZM247.456 92.5733C246.726 92.6082 246.032 92.9975 245.512 93.6644C244.689 94.6744 244.13 95.9931 243.912 97.4363C243.392 100.554 244.352 103.484 246.04 103.951C247.728 104.419 249.528 102.268 250.04 99.1508C250.552 96.0335 249.6 93.1033 247.912 92.6357C247.762 92.596 247.609 92.5751 247.456 92.5733V92.5733Z" fill="white"/>
<path d="M251.344 99.775C251.314 99.7749 251.284 99.7664 251.256 99.7503C251.229 99.7342 251.204 99.7107 251.184 99.6814C251.074 99.5356 250.939 99.4249 250.791 99.3582C250.642 99.2914 250.484 99.2703 250.328 99.2966C250.301 99.3025 250.273 99.3013 250.246 99.2929C250.219 99.2845 250.193 99.2692 250.171 99.2479C250.149 99.2266 250.13 99.1997 250.115 99.1688C250.101 99.1378 250.092 99.1035 250.088 99.0678C250.079 98.9975 250.091 98.9253 250.123 98.8668C250.154 98.8084 250.202 98.7685 250.256 98.7558C250.484 98.7154 250.716 98.7462 250.933 98.8456C251.15 98.9451 251.346 99.1104 251.504 99.3278C251.542 99.3799 251.563 99.4487 251.563 99.5202C251.563 99.5917 251.542 99.6606 251.504 99.7126C251.482 99.7363 251.456 99.754 251.429 99.7648C251.401 99.7755 251.373 99.779 251.344 99.775Z" fill="white"/>
<path d="M150.248 160.488C148.097 160.488 145.995 159.66 144.207 158.108C142.419 156.556 141.025 154.349 140.203 151.769C139.38 149.188 139.165 146.348 139.585 143.608C140.006 140.869 141.042 138.352 142.563 136.378C144.084 134.403 146.022 133.059 148.132 132.516C150.241 131.972 152.428 132.253 154.414 133.324C156.401 134.394 158.098 136.206 159.292 138.529C160.485 140.853 161.122 143.584 161.12 146.377C161.116 150.12 159.969 153.707 157.93 156.353C155.892 158.998 153.129 160.485 150.248 160.488ZM150.248 133.472C148.281 133.472 146.359 134.229 144.723 135.648C143.088 137.068 141.814 139.085 141.061 141.445C140.308 143.805 140.111 146.402 140.495 148.907C140.879 151.413 141.826 153.714 143.217 155.521C144.607 157.327 146.379 158.557 148.308 159.056C150.237 159.554 152.236 159.298 154.053 158.32C155.87 157.343 157.423 155.687 158.516 153.563C159.609 151.439 160.192 148.942 160.192 146.388C160.19 142.962 159.142 139.677 157.278 137.254C155.413 134.831 152.885 133.467 150.248 133.461V133.472Z" fill="#407BFF"/>
<path d="M150.248 151.313C148.097 151.313 145.995 150.485 144.207 148.933C142.419 147.381 141.025 145.175 140.203 142.594C139.38 140.013 139.165 137.173 139.585 134.433C140.006 131.694 141.042 129.178 142.563 127.203C144.084 125.229 146.022 123.885 148.132 123.341C150.241 122.797 152.428 123.078 154.414 124.149C156.401 125.219 158.098 127.031 159.292 129.354C160.485 131.678 161.122 134.409 161.12 137.203C161.116 140.945 159.969 144.533 157.93 147.178C155.892 149.823 153.129 151.311 150.248 151.313ZM150.248 124.297C148.281 124.297 146.359 125.054 144.723 126.474C143.088 127.893 141.814 129.91 141.061 132.27C140.308 134.63 140.111 137.227 140.495 139.733C140.879 142.238 141.826 144.54 143.217 146.346C144.607 148.152 146.379 149.382 148.308 149.881C150.237 150.379 152.236 150.123 154.053 149.146C155.87 148.168 157.423 146.513 158.516 144.389C159.609 142.265 160.192 139.767 160.192 137.213C160.192 133.786 159.145 130.5 157.28 128.076C155.415 125.652 152.886 124.289 150.248 124.287V124.297Z" fill="#407BFF"/>
<path d="M153.2 85.6111C151.921 85.6111 150.671 85.1187 149.608 84.1962C148.545 83.2736 147.717 81.9624 147.228 80.4282C146.738 78.8941 146.61 77.2059 146.86 75.5773C147.109 73.9486 147.725 72.4526 148.629 71.2784C149.533 70.1042 150.685 69.3046 151.939 68.9807C153.192 68.6567 154.492 68.823 155.673 69.4584C156.854 70.0939 157.864 71.17 158.574 72.5507C159.284 73.9314 159.664 75.5547 159.664 77.2152C159.659 79.4403 158.977 81.5726 157.766 83.146C156.554 84.7193 154.913 85.6056 153.2 85.6111V85.6111ZM153.2 69.5259C152.029 69.5259 150.884 69.9769 149.911 70.8218C148.937 71.6667 148.178 72.8676 147.73 74.2727C147.282 75.6777 147.165 77.2238 147.393 78.7153C147.622 80.2069 148.186 81.577 149.014 82.6524C149.841 83.7278 150.896 84.4601 152.045 84.7568C153.193 85.0535 154.383 84.9012 155.465 84.3192C156.547 83.7372 157.471 82.7517 158.122 81.4872C158.772 80.2227 159.12 78.736 159.12 77.2152C159.113 75.1804 158.487 73.2315 157.378 71.7945C156.268 70.3576 154.766 69.5494 153.2 69.5467V69.5259Z" fill="#407BFF"/>
<path d="M151.92 83.2107C150.642 83.2107 149.392 82.7183 148.329 81.7958C147.266 80.8732 146.437 79.562 145.948 78.0278C145.459 76.4937 145.331 74.8055 145.58 73.1769C145.83 71.5482 146.445 70.0522 147.349 68.878C148.253 67.7039 149.405 66.9042 150.659 66.5803C151.913 66.2563 153.213 66.4226 154.394 67.058C155.575 67.6935 156.584 68.7696 157.295 70.1503C158.005 71.531 158.384 73.1543 158.384 74.8148C158.382 77.0407 157.7 79.1747 156.488 80.7486C155.277 82.3225 153.634 83.208 151.92 83.2107V83.2107ZM151.92 67.1359C150.751 67.1359 149.608 67.5863 148.636 68.4301C147.663 69.2738 146.906 70.4731 146.458 71.8762C146.011 73.2794 145.894 74.8234 146.122 76.3129C146.35 77.8025 146.913 79.1707 147.74 80.2447C148.566 81.3186 149.62 82.0499 150.767 82.3462C151.914 82.6425 153.102 82.4904 154.182 81.9092C155.263 81.328 156.186 80.3438 156.836 79.081C157.485 77.8182 157.832 76.3336 157.832 74.8148C157.832 72.7783 157.209 70.8251 156.1 69.385C154.992 67.945 153.488 67.1359 151.92 67.1359V67.1359Z" fill="#407BFF"/>
<path d="M133.968 104.252L138.104 86.8892C138.104 86.8892 113.056 77.3295 111.312 73.3809C108.912 68.0608 94.7678 51.0819 91.3118 45.3253C90.1758 45.0967 87.1678 45.6475 86.3518 46.4995C87.9518 56.7034 101.824 79.8649 105.12 83.5121C112.664 91.8457 133.968 104.252 133.968 104.252Z" fill="#407BFF"/>
<path d="M91.9362 46.5827L89.8562 37.8127L82.3682 38.4362C83.4749 42.1422 85.0098 45.6075 86.9202 48.7129L91.9362 46.5827Z" fill="#407BFF"/>
<path d="M86.5042 28.5752L82.7922 30.4767L82.3682 38.4154L89.8562 37.792L86.5042 28.5752Z" fill="#407BFF"/>
<path d="M128.12 94.4123C126.198 104.053 125.125 113.946 124.92 123.902C124.83 128.667 126.198 133.283 128.725 136.739C131.252 140.195 134.732 142.207 138.4 142.335L148.888 142.709C152.155 142.827 155.338 141.352 157.81 138.575C160.283 135.799 161.866 131.921 162.248 127.705C162.912 120.431 164.112 109.978 166.44 94.2772C166.554 93.5071 166.547 92.7147 166.419 91.9482C166.291 91.1817 166.045 90.457 165.695 89.8178C165.345 89.1786 164.898 88.6383 164.383 88.2296C163.868 87.8209 163.294 87.5523 162.696 87.44C160.544 87.0347 157.896 86.6295 155.304 86.4632C150.177 86.0836 145.038 86.0836 139.912 86.4632C137.68 86.7334 135.496 87.201 133.704 87.6582C132.38 87.9914 131.154 88.8013 130.167 89.9954C129.179 91.1896 128.47 92.72 128.12 94.4123Z" fill="#407BFF"/>
<path d="M153.648 67.7803C152.56 74.2123 151.928 82.1717 155.312 86.484C155.312 86.484 153.192 93.0095 144 93.0095C135.592 93.0095 139.92 86.484 139.92 86.484C145.472 84.7799 145.352 75.906 144.488 70.8976L153.648 67.7803Z" fill="#407BFF"/>
<path opacity="0.2" d="M144.48 70.8973C145 73.8275 145.28 78.0878 144.248 81.4545C145.11 81.2699 145.946 80.9197 146.728 80.4154C149.88 78.5138 151.472 75.5109 153.128 71.0635C153.272 69.9205 153.44 68.8087 153.624 67.728L144.48 70.8973Z" fill="black"/>
<path d="M151.712 70.17C152.267 70.9685 152.939 71.6145 153.689 72.0696C154.44 72.5248 155.253 72.7798 156.08 72.8197C158.288 72.8924 158.88 70.0972 157.84 67.6969C156.904 65.5356 154.64 62.8963 152.6 63.9562C152.161 64.2071 151.776 64.5936 151.478 65.0819C151.18 65.5703 150.979 66.1457 150.891 66.7582C150.804 67.3707 150.833 68.0017 150.976 68.5963C151.119 69.1909 151.372 69.7311 151.712 70.17Z" fill="#407BFF"/>
<path d="M157.856 60.2053C155.832 68.6116 154.968 73.6512 150.856 77.049C144.68 82.1614 137.424 75.8749 137.504 66.9178C137.576 58.8441 140.88 46.4684 147.904 44.9618C149.434 44.6273 151.005 44.8152 152.462 45.507C153.92 46.1988 155.213 47.3707 156.217 48.9079C157.221 50.445 157.899 52.2945 158.187 54.2751C158.474 56.2557 158.36 58.2992 157.856 60.2053V60.2053Z" fill="#407BFF"/>
<g opacity="0.4">
<path opacity="0.5" d="M154.816 55.706C154.936 55.612 155.033 55.4767 155.096 55.3152C155.16 55.1537 155.187 54.9724 155.176 54.7916C155.171 54.6345 155.134 54.482 155.067 54.3503C155.001 54.2186 154.909 54.1126 154.8 54.0435C154.856 53.9168 154.89 53.7765 154.901 53.6315C154.912 53.4865 154.899 53.3401 154.864 53.2018C154.828 53.0717 154.769 52.9547 154.691 52.8607C154.613 52.7666 154.519 52.6983 154.416 52.6615C154.464 52.5334 154.488 52.3931 154.488 52.251C154.488 52.1089 154.464 51.9686 154.416 51.8406C154.369 51.7163 154.297 51.6099 154.209 51.5317C154.121 51.4534 154.019 51.406 153.912 51.3938C153.939 51.2566 153.942 51.1131 153.92 50.9743C153.898 50.8356 153.851 50.7054 153.784 50.5937C153.721 50.4853 153.638 50.3984 153.544 50.3405C153.449 50.2826 153.345 50.2554 153.24 50.2611C153.249 50.1195 153.233 49.9771 153.194 49.8442C153.155 49.7113 153.095 49.5911 153.016 49.4922C152.938 49.4002 152.845 49.3342 152.743 49.2998C152.641 49.2654 152.534 49.2637 152.432 49.2948C152.427 49.1544 152.397 49.0175 152.344 48.8948C152.292 48.7722 152.218 48.6672 152.128 48.5882C152.041 48.512 151.939 48.4663 151.834 48.4554C151.729 48.4444 151.624 48.4687 151.528 48.5258C151.507 48.3885 151.461 48.2596 151.394 48.1495C151.328 48.0394 151.242 47.9512 151.144 47.892C151.046 47.8394 150.94 47.8176 150.834 47.8284C150.729 47.8393 150.627 47.8824 150.536 47.9543C150.5 47.8257 150.44 47.7104 150.362 47.6182C150.284 47.5259 150.19 47.4594 150.088 47.4244C149.983 47.3933 149.874 47.395 149.77 47.4293C149.666 47.4636 149.569 47.5296 149.488 47.6218C149.433 47.5036 149.358 47.4041 149.267 47.3318C149.177 47.2595 149.074 47.2164 148.968 47.2062C148.861 47.1992 148.754 47.2247 148.655 47.2806C148.556 47.3365 148.469 47.4213 148.4 47.5283C148.334 47.4234 148.249 47.3412 148.153 47.2886C148.057 47.2361 147.952 47.2149 147.848 47.227C147.742 47.2434 147.639 47.2913 147.549 47.367C147.459 47.4426 147.383 47.544 147.328 47.6634C147.25 47.5729 147.156 47.5079 147.054 47.4735C146.953 47.4392 146.847 47.4366 146.744 47.466C146.638 47.5038 146.54 47.5719 146.457 47.6654C146.374 47.7589 146.308 47.8754 146.264 48.0063C146.176 47.9319 146.075 47.8873 145.97 47.8764C145.865 47.8655 145.76 47.8887 145.664 47.944C145.563 48.0026 145.473 48.09 145.401 48.1997C145.329 48.3094 145.277 48.4385 145.248 48.5778C145.151 48.5203 145.043 48.4967 144.937 48.5094C144.83 48.5222 144.728 48.5708 144.64 48.6505C144.55 48.732 144.473 48.8368 144.415 48.9583C144.358 49.0799 144.32 49.2157 144.304 49.3571C144.202 49.3255 144.096 49.326 143.995 49.3586C143.893 49.3911 143.799 49.4548 143.72 49.5442C143.63 49.6493 143.559 49.7797 143.514 49.9255C143.468 50.0713 143.448 50.2287 143.456 50.3858C143.324 50.3898 143.196 50.4429 143.087 50.5386C142.978 50.6344 142.892 50.7689 142.84 50.9262C142.776 51.0918 142.749 51.2782 142.765 51.4627C142.781 51.6472 142.837 51.8219 142.928 51.9653C142.817 52.0704 142.731 52.2135 142.678 52.3786C142.626 52.5436 142.61 52.7243 142.632 52.9004C142.649 53.0706 142.705 53.2303 142.792 53.3597C142.879 53.489 142.993 53.5823 143.12 53.6278C143.073 53.7936 143.063 53.9734 143.091 54.1462C143.12 54.3191 143.185 54.478 143.28 54.6046C143.369 54.728 143.486 54.8116 143.614 54.8433C143.742 54.8751 143.874 54.8533 143.992 54.7812C144.016 54.9183 144.067 55.0454 144.138 55.1512C144.209 55.257 144.3 55.3383 144.401 55.3877C144.502 55.4371 144.612 55.4531 144.719 55.4343C144.826 55.4155 144.928 55.3625 145.016 55.28C145.052 55.3975 145.108 55.5027 145.18 55.5874C145.252 55.6721 145.339 55.734 145.432 55.7683C145.526 55.7996 145.624 55.8037 145.72 55.7804C145.815 55.757 145.905 55.7068 145.984 55.6333C146.024 55.7479 146.083 55.85 146.156 55.9325C146.229 56.015 146.315 56.076 146.408 56.1112C146.502 56.1425 146.6 56.1466 146.696 56.1233C146.791 56.0999 146.881 56.0497 146.96 55.9762C147.001 56.0916 147.061 56.194 147.136 56.2765C147.21 56.359 147.298 56.4196 147.392 56.4542C147.486 56.4861 147.584 56.4906 147.68 56.4672C147.775 56.4439 147.866 56.3933 147.944 56.3191C147.981 56.4373 148.039 56.5428 148.112 56.6275C148.186 56.7122 148.273 56.7738 148.368 56.8074C148.462 56.838 148.56 56.8417 148.656 56.8184C148.751 56.7951 148.841 56.7453 148.92 56.6724C148.958 56.7891 149.015 56.893 149.089 56.9759C149.163 57.0588 149.25 57.1185 149.344 57.1503C149.438 57.1831 149.536 57.1879 149.632 57.1645C149.728 57.1411 149.818 57.0901 149.896 57.0153C149.934 57.132 149.991 57.2358 150.065 57.3188C150.139 57.4017 150.226 57.4614 150.32 57.4932C150.413 57.5282 150.512 57.5351 150.607 57.5135C150.703 57.4919 150.793 57.4423 150.872 57.3686C150.911 57.4841 150.969 57.5868 151.043 57.6691C151.116 57.7515 151.203 57.8113 151.297 57.8442C151.39 57.8771 151.489 57.8823 151.584 57.8593C151.68 57.8363 151.77 57.7858 151.848 57.7115C151.887 57.8269 151.945 57.9297 152.019 58.0123C152.092 58.095 152.179 58.1555 152.272 58.1894H152.32C152.449 58.2264 152.584 58.2136 152.707 58.1527C152.831 58.0918 152.938 57.9854 153.016 57.8465C153.108 57.9682 153.226 58.0504 153.355 58.0819C153.484 58.1135 153.617 58.093 153.736 58.0232C153.856 57.9432 153.959 57.8251 154.034 57.6797C154.11 57.5344 154.156 57.3666 154.168 57.1919C154.301 57.2116 154.435 57.1808 154.554 57.1034C154.673 57.0259 154.773 56.905 154.84 56.7555C154.914 56.5962 154.952 56.4123 154.947 56.2261C154.943 56.04 154.898 55.8593 154.816 55.706Z" fill="white"/>
<path d="M156.8 56.4122C156.91 56.3076 156.999 56.1696 157.059 56.0103C157.119 55.851 157.148 55.6751 157.144 55.4978C157.147 55.3499 157.12 55.2035 157.065 55.0739C157.01 54.9442 156.93 54.8358 156.832 54.7601C156.885 54.6345 156.919 54.4964 156.932 54.3537C156.944 54.2111 156.934 54.0667 156.904 53.9288C156.883 53.8071 156.837 53.6952 156.771 53.6054C156.705 53.5155 156.621 53.4512 156.528 53.4196C156.571 53.29 156.593 53.1503 156.593 53.0092C156.593 52.868 156.571 52.7284 156.528 52.5987C156.495 52.4844 156.437 52.3846 156.362 52.311C156.287 52.2374 156.198 52.193 156.104 52.1831C156.129 52.0498 156.133 51.9113 156.117 51.7758C156.1 51.6402 156.063 51.5103 156.008 51.3934C155.959 51.2907 155.889 51.2081 155.805 51.1548C155.722 51.1015 155.628 51.0798 155.536 51.092C155.55 50.959 155.543 50.8235 155.514 50.6944C155.485 50.5654 155.435 50.4459 155.368 50.3439C155.304 50.2546 155.222 50.1906 155.131 50.1594C155.041 50.1281 154.945 50.1308 154.856 50.1673C154.859 50.0357 154.838 49.9052 154.795 49.7861C154.752 49.667 154.688 49.5626 154.608 49.4815C154.53 49.4178 154.44 49.384 154.348 49.384C154.256 49.384 154.166 49.4178 154.088 49.4815C154.073 49.3546 154.037 49.2335 153.982 49.1274C153.926 49.0212 153.853 48.9327 153.768 48.8684C153.68 48.8239 153.584 48.8092 153.491 48.8255C153.397 48.8419 153.308 48.8888 153.232 48.9619C153.207 48.8424 153.159 48.7334 153.091 48.6458C153.024 48.5583 152.94 48.4953 152.848 48.4631C152.753 48.4358 152.654 48.4416 152.561 48.48C152.468 48.5183 152.385 48.5878 152.32 48.6813C152.28 48.5712 152.219 48.4771 152.141 48.4094C152.064 48.3416 151.973 48.3027 151.88 48.2969V48.2969C151.781 48.2972 151.683 48.3285 151.595 48.3882C151.508 48.4479 151.432 48.5342 151.376 48.6398C151.323 48.5401 151.251 48.4612 151.166 48.4117C151.082 48.3621 150.988 48.344 150.896 48.3592C150.797 48.3839 150.703 48.438 150.623 48.5173C150.542 48.5966 150.477 48.699 150.432 48.8164C150.37 48.7277 150.289 48.6646 150.199 48.635C150.109 48.6055 150.015 48.6107 149.928 48.6502C149.829 48.6963 149.738 48.7692 149.662 48.8642C149.586 48.9591 149.527 49.0739 149.488 49.2009C149.41 49.1325 149.318 49.096 149.224 49.096C149.13 49.096 149.038 49.1325 148.96 49.2009C148.867 49.2702 148.786 49.3629 148.722 49.4736C148.657 49.5842 148.61 49.7106 148.584 49.8451C148.497 49.7942 148.4 49.7759 148.306 49.7925C148.211 49.809 148.122 49.8596 148.048 49.9386C147.877 50.117 147.765 50.3736 147.736 50.6556C147.643 50.6319 147.546 50.6385 147.456 50.6748C147.365 50.711 147.283 50.7758 147.216 50.8634C147.132 50.9758 147.066 51.1094 147.024 51.256C146.981 51.4026 146.962 51.559 146.968 51.7155C146.845 51.7283 146.727 51.7872 146.629 51.8849C146.531 51.9826 146.457 52.115 146.416 52.2662C146.346 52.4242 146.309 52.6034 146.309 52.7858C146.309 52.9682 146.346 53.1474 146.416 53.3053C146.316 53.4244 146.239 53.5716 146.191 53.7356C146.142 53.8996 146.123 54.0759 146.136 54.2509C146.142 54.4081 146.184 54.5593 146.257 54.6852C146.329 54.8111 146.429 54.9059 146.544 54.9575C146.501 55.1167 146.489 55.2869 146.509 55.4534C146.528 55.62 146.579 55.7778 146.656 55.9135C146.73 56.0285 146.834 56.106 146.948 56.1326C147.062 56.1591 147.179 56.1331 147.28 56.0589C147.294 56.199 147.34 56.3306 147.411 56.4376C147.482 56.5446 147.575 56.6225 147.68 56.6616C147.763 56.6904 147.851 56.6912 147.935 56.664C148.019 56.6367 148.096 56.5823 148.16 56.5057C148.187 56.614 148.234 56.7121 148.297 56.7917C148.359 56.8713 148.436 56.93 148.52 56.9629C148.605 56.9917 148.694 56.9925 148.779 56.9653C148.864 56.938 148.943 56.8837 149.008 56.8071C149.035 56.9153 149.082 57.0134 149.145 57.093C149.207 57.1726 149.284 57.2314 149.368 57.2643C149.453 57.293 149.542 57.2938 149.627 57.2666C149.712 57.2394 149.791 57.185 149.856 57.1084C149.883 57.2167 149.93 57.3148 149.993 57.3944C150.055 57.474 150.132 57.5327 150.216 57.5656C150.301 57.5943 150.39 57.5951 150.475 57.5679C150.56 57.5407 150.639 57.4864 150.704 57.4098C150.731 57.518 150.778 57.6161 150.841 57.6957C150.903 57.7753 150.98 57.8341 151.064 57.867C151.149 57.8957 151.238 57.8965 151.323 57.8693C151.408 57.842 151.487 57.7877 151.552 57.7111C151.579 57.8193 151.626 57.9174 151.689 57.997C151.751 58.0766 151.828 58.1354 151.912 58.1683C151.997 58.197 152.086 58.1978 152.171 58.1706C152.256 58.1434 152.335 58.089 152.4 58.0124C152.427 58.1207 152.474 58.2188 152.537 58.2984C152.599 58.378 152.676 58.4367 152.76 58.4696C152.845 58.4957 152.933 58.4951 153.018 58.468C153.103 58.4409 153.182 58.3881 153.248 58.3138C153.275 58.422 153.322 58.5201 153.385 58.5997C153.447 58.6793 153.524 58.7381 153.608 58.771C153.673 58.6941 153.751 58.6398 153.837 58.6131C153.922 58.5863 154.011 58.5881 154.096 58.6182C154.18 58.6483 154.258 58.7057 154.321 58.7851C154.384 58.8645 154.43 58.9633 154.456 59.0723C154.576 59.1015 154.7 59.0822 154.812 59.0173C154.923 58.9523 155.017 58.8446 155.08 58.7086C155.155 58.8237 155.258 58.9005 155.373 58.9253C155.487 58.95 155.604 58.9211 155.704 58.8437C155.818 58.7586 155.914 58.6382 155.984 58.4932C156.054 58.3482 156.095 58.183 156.104 58.0124C156.229 58.018 156.353 57.9769 156.46 57.894C156.568 57.8112 156.655 57.69 156.712 57.5448C156.81 57.3876 156.87 57.1968 156.886 56.9956C156.901 56.7944 156.872 56.5917 156.8 56.4122V56.4122Z" fill="white"/>
</g>
<path d="M156.872 94.2462L157.672 91.7004C158.156 90.0855 159.109 88.7821 160.325 88.0707C161.542 87.3594 162.925 87.2971 164.176 87.8973C170.824 91.077 182.472 96.3036 184.672 94.9528C188.92 92.3447 198.36 88.022 202.912 83.7617C204.024 83.9799 206.696 85.7048 207.256 86.879C203.376 96.2309 189.264 107.661 185.024 108.17C178.52 108.939 167.088 105.437 160.32 103.079C159.623 102.841 158.973 102.415 158.412 101.827C157.851 101.239 157.393 100.504 157.067 99.6692C156.741 98.8346 156.556 97.9197 156.522 96.9849C156.488 96.0501 156.608 95.1167 156.872 94.2462Z" fill="#407BFF"/>
<path d="M206.912 87.5543L211.528 81.7042L204.056 78.7532C204.056 78.7532 200.152 84.0422 202.704 88.7597L206.912 87.5543Z" fill="#407BFF"/>
<path d="M212.592 73.7345L205.728 71.5005L204.056 78.7534L211.528 81.7044L212.592 73.7345Z" fill="#407BFF"/>
<path opacity="0.2" d="M146.456 64.05L147.944 61.1821L153.088 63.0109L151.192 64.8813L146.456 64.05Z" fill="black"/>
<path opacity="0.2" d="M143.304 62.6991L143.6 59.4675L140.008 58.0439L140.128 60.3715L143.304 62.6991Z" fill="black"/>
<path opacity="0.2" d="M148.136 70.6691C145.184 70.4007 142.315 69.2827 139.736 67.396C139.71 67.3758 139.686 67.3488 139.668 67.3165C139.65 67.2843 139.637 67.2475 139.63 67.2085C139.624 67.1695 139.623 67.1291 139.629 67.0899C139.635 67.0506 139.647 67.0133 139.664 66.9803C139.697 66.9157 139.748 66.8699 139.806 66.8524C139.864 66.835 139.925 66.8473 139.976 66.8868C142.497 68.6824 145.285 69.7526 148.152 70.0249C148.214 70.0352 148.27 70.0751 148.31 70.1366C148.35 70.1982 148.371 70.2769 148.368 70.3574C148.369 70.3978 148.364 70.4381 148.353 70.4759C148.342 70.5137 148.325 70.5481 148.303 70.5772C148.281 70.6063 148.256 70.6294 148.227 70.6452C148.198 70.661 148.167 70.6691 148.136 70.6691V70.6691Z" fill="black"/>
<path opacity="0.2" d="M185.192 108.409H185.144C185.114 108.401 185.086 108.386 185.06 108.364C185.035 108.343 185.013 108.314 184.996 108.282C184.979 108.249 184.967 108.212 184.96 108.173C184.954 108.134 184.954 108.094 184.96 108.055C185.712 103.296 184.664 97.0203 184.104 95.2122C184.092 95.1754 184.086 95.1359 184.086 95.0961C184.087 95.0563 184.093 95.0168 184.105 94.9801C184.117 94.9434 184.134 94.9101 184.156 94.8822C184.178 94.8542 184.204 94.8322 184.232 94.8174C184.26 94.8023 184.29 94.7947 184.32 94.7949C184.35 94.7952 184.38 94.8033 184.407 94.8188C184.435 94.8343 184.46 94.8569 184.481 94.8853C184.501 94.9136 184.517 94.947 184.528 94.9836C185.627 99.2285 185.931 103.752 185.416 108.18C185.402 108.244 185.373 108.301 185.333 108.342C185.293 108.383 185.243 108.407 185.192 108.409V108.409Z" fill="black"/>
<path opacity="0.2" d="M164.968 104.897C163.512 104.762 162.136 103.224 161.288 100.792C160.57 98.5952 160.307 96.192 160.526 93.822C160.745 91.452 161.438 89.1978 162.536 87.284C162.573 87.2215 162.627 87.18 162.686 87.1684C162.746 87.1567 162.807 87.1758 162.856 87.2216C162.905 87.271 162.937 87.3428 162.946 87.4221C162.955 87.5015 162.94 87.5822 162.904 87.6476C161.852 89.4787 161.189 91.636 160.98 93.9042C160.771 96.1724 161.023 98.4722 161.712 100.574C162.512 102.808 163.72 104.211 165.008 104.336C165.068 104.343 165.124 104.382 165.162 104.442C165.201 104.502 165.221 104.579 165.216 104.658C165.206 104.731 165.175 104.797 165.129 104.842C165.083 104.886 165.025 104.906 164.968 104.897V104.897Z" fill="black"/>
<path opacity="0.2" d="M127.088 100.356H127.048C127.018 100.348 126.989 100.333 126.964 100.311C126.938 100.29 126.917 100.261 126.899 100.229C126.882 100.196 126.87 100.159 126.864 100.12C126.858 100.081 126.858 100.041 126.864 100.002C127.664 94.2354 132.224 86.3175 137.808 86.4941C137.838 86.4955 137.868 86.5046 137.896 86.521C137.924 86.5374 137.949 86.5607 137.97 86.5897C137.99 86.6186 138.007 86.6526 138.017 86.6897C138.028 86.7268 138.033 86.7663 138.032 86.8058C138.028 86.8831 138.002 86.9557 137.959 87.0095C137.916 87.0633 137.859 87.0944 137.8 87.0968C132.464 86.9305 128.096 94.5679 127.32 100.137C127.306 100.202 127.275 100.259 127.233 100.299C127.191 100.338 127.14 100.358 127.088 100.356V100.356Z" fill="black"/>
<path opacity="0.2" d="M206.92 87.8553H206.872L206.008 87.6475C204.176 87.2526 201.896 86.7538 201.632 84.7068C201.626 84.6672 201.627 84.6265 201.633 84.5871C201.64 84.5477 201.652 84.5104 201.67 84.4774C201.688 84.4445 201.711 84.4165 201.737 84.3953C201.764 84.374 201.793 84.3598 201.824 84.3535C201.884 84.3442 201.945 84.3647 201.994 84.4109C202.043 84.4572 202.076 84.5258 202.088 84.6029C202.296 86.2343 204.4 86.6811 206.088 87.0656C206.4 87.1279 206.696 87.1903 206.968 87.263C206.998 87.2705 207.026 87.2855 207.052 87.3073C207.077 87.3292 207.099 87.3573 207.116 87.3901C207.133 87.4229 207.145 87.4598 207.151 87.4986C207.158 87.5374 207.158 87.5774 207.152 87.6163C207.139 87.6841 207.11 87.7445 207.068 87.7878C207.026 87.8311 206.974 87.8549 206.92 87.8553V87.8553Z" fill="black"/>
<path opacity="0.2" d="M106.664 85.6111C106.635 85.6125 106.605 85.6063 106.578 85.593C106.55 85.5796 106.525 85.5594 106.503 85.5333C106.482 85.5072 106.464 85.4759 106.452 85.4411C106.44 85.4063 106.433 85.3688 106.432 85.3306C106.312 80.956 108.888 75.9787 111.448 73.6407C111.472 73.6112 111.501 73.5889 111.533 73.5751C111.564 73.5613 111.597 73.5565 111.63 73.5609C111.664 73.5654 111.695 73.579 111.724 73.6008C111.753 73.6226 111.777 73.6522 111.796 73.6875C111.816 73.7228 111.829 73.763 111.835 73.8054C111.841 73.8478 111.84 73.8915 111.832 73.9333C111.824 73.9752 111.809 74.0143 111.788 74.0481C111.768 74.0819 111.742 74.1095 111.712 74.1291C109.312 76.3008 106.784 81.195 106.912 85.3098C106.913 85.348 106.908 85.3861 106.898 85.4219C106.888 85.4578 106.872 85.4906 106.852 85.5186C106.832 85.5466 106.808 85.5692 106.781 85.585C106.754 85.6009 106.725 85.6098 106.696 85.6111H106.664Z" fill="black"/>
<path opacity="0.2" d="M87.856 48.8895C87.4685 48.8867 87.0824 48.8309 86.704 48.7232C86.6447 48.7036 86.5938 48.6544 86.5624 48.5863C86.5309 48.5182 86.5214 48.4367 86.536 48.3595C86.5494 48.2829 86.5853 48.2161 86.6362 48.1734C86.687 48.1307 86.7486 48.1154 86.808 48.1309C88.568 48.6713 90.808 47.7049 91.656 46.0528C91.6926 45.9954 91.7442 45.9576 91.801 45.9468C91.8578 45.936 91.9156 45.9529 91.9633 45.9942C92.0111 46.0356 92.0453 46.0984 92.0595 46.1706C92.0736 46.2428 92.0667 46.3193 92.04 46.3853C91.5392 47.1945 90.9007 47.8419 90.1747 48.2764C89.4487 48.7109 88.655 48.9208 87.856 48.8895V48.8895Z" fill="black"/>
<path opacity="0.2" d="M154.536 114.394C153.688 123.122 149.208 130.458 143.96 132.37C143.082 132.688 142.175 132.852 141.264 132.859C134.928 132.859 130.6 124.546 131.592 114.342C132.584 104.138 138.536 95.8773 144.856 95.8877C146.26 95.8965 147.644 96.3336 148.894 97.1638C150.145 97.994 151.228 99.1942 152.056 100.668C154.23 104.648 155.12 109.573 154.536 114.394V114.394Z" fill="black"/>
<path opacity="0.2" d="M154.536 114.394C153.856 121.429 150.808 127.559 146.912 130.677C146.003 131.404 145.024 131.974 144 132.37C138.952 130.604 135.576 123.746 136.2 115.745C136.912 106.622 142.6 99.4622 148.832 99.7532C149.96 99.8022 151.072 100.105 152.12 100.647C152.785 101.779 153.324 103.028 153.72 104.356C154.638 107.56 154.919 111.012 154.536 114.394V114.394Z" fill="black"/>
<path opacity="0.2" d="M154.536 114.394C153.856 121.429 150.808 127.559 146.912 130.677C145.436 129.616 144.203 128.066 143.34 126.183C142.477 124.301 142.015 122.154 142 119.964C141.912 112.264 146.872 105.302 153.112 104.44C153.296 104.44 153.488 104.44 153.68 104.377C154.609 107.57 154.903 111.015 154.536 114.394V114.394Z" fill="black"/>
<path d="M147.664 107.848C146.776 106.185 145.024 105.894 143.432 106.975C143.145 107.151 142.828 107.229 142.511 107.199C142.195 107.17 141.889 107.036 141.624 106.809C140.424 105.905 138.688 106.237 137.272 107.848C135.472 109.843 134.872 113.043 135.944 115.121L138.528 119.995C138.696 120.306 138.913 120.568 139.165 120.761C139.417 120.955 139.698 121.076 139.989 121.116C140.281 121.157 140.575 121.115 140.853 120.995C141.131 120.875 141.385 120.679 141.6 120.421L146.336 115.173C148.136 113.106 148.728 109.864 147.664 107.848Z" fill="#407BFF"/>
<path d="M129.872 164.874C129.872 164.874 128.272 151.085 130.264 140.507C130.535 139.102 131.149 137.85 132.015 136.937C132.88 136.025 133.95 135.502 135.064 135.446C139.557 135.314 144.053 135.518 148.528 136.059C149.877 136.228 151.121 137.079 151.992 138.428C152.863 139.777 153.291 141.516 153.184 143.271C152.726 150.48 152.946 157.734 153.84 164.874H129.872Z" fill="#407BFF"/>
<path opacity="0.2" d="M129.872 164.874C129.872 164.874 128.272 151.085 130.264 140.507C130.535 139.102 131.149 137.85 132.015 136.937C132.88 136.025 133.95 135.502 135.064 135.446C139.557 135.314 144.053 135.518 148.528 136.059C149.877 136.228 151.121 137.079 151.992 138.428C152.863 139.777 153.291 141.516 153.184 143.271C152.726 150.48 152.946 157.734 153.84 164.874H129.872Z" fill="black"/>
<path d="M146.856 164.873C146.856 164.873 148.328 241.049 142.68 261.042C148.216 283.434 153.88 387.469 153.88 387.469H136.28C136.28 387.469 132.416 293.95 130 261.042C125.88 236.405 124.16 188.887 123.648 171.472C123.609 170.609 123.708 169.745 123.94 168.934C124.172 168.124 124.531 167.385 124.994 166.764C125.458 166.144 126.016 165.655 126.632 165.33C127.249 165.004 127.911 164.849 128.576 164.873H146.856Z" fill="#407BFF"/>
<path opacity="0.2" d="M141.808 191.599C141.808 191.599 141.76 225.671 145.008 246.317C146.224 233.848 146.736 217.399 146.928 202.499L141.808 191.599Z" fill="black"/>
<path d="M133.432 164.874C133.432 164.874 145.992 241.05 154.752 261.042C158.552 308.757 172.272 387.469 172.272 387.469H189.872C189.872 387.469 175.752 290.635 168.544 261.042C168.84 236.405 162.064 188.887 159.872 171.472C159.633 169.638 158.905 167.972 157.816 166.765C156.726 165.559 155.344 164.889 153.912 164.874H133.432Z" fill="#407BFF"/>
<path d="M163.303 270.678C166.651 269.085 168.131 263.416 166.608 258.017C165.085 252.618 161.137 249.532 157.789 251.125C154.441 252.718 152.961 258.387 154.484 263.786C156.007 269.185 159.955 272.271 163.303 270.678Z" fill="#407BFF"/>
<path opacity="0.2" d="M163.303 270.678C166.651 269.085 168.131 263.416 166.608 258.017C165.085 252.618 161.137 249.532 157.789 251.125C154.441 252.718 152.961 258.387 154.484 263.786C156.007 269.185 159.955 272.271 163.303 270.678Z" fill="black"/>
<path d="M174.064 379.602C173.277 379.594 172.498 379.794 171.773 380.191C171.048 380.587 170.394 381.171 169.848 381.907C169.303 382.643 168.88 383.516 168.603 384.472C168.326 385.429 168.203 386.448 168.24 387.468H180.352C180.278 385.361 179.585 383.37 178.415 381.907C177.245 380.444 175.688 379.619 174.064 379.602V379.602Z" fill="#407BFF"/>
<path d="M128.536 262.257C129.072 267.712 132.168 271.536 135.448 270.819C138.728 270.102 140.944 265.083 140.408 259.628C139.872 254.173 136.784 250.339 133.504 251.066C130.224 251.793 128 256.771 128.536 262.257Z" fill="#407BFF"/>
<path opacity="0.2" d="M128.536 262.257C129.072 267.712 132.168 271.536 135.448 270.819C138.728 270.102 140.944 265.083 140.408 259.628C139.872 254.173 136.784 250.339 133.504 251.066C130.224 251.793 128 256.771 128.536 262.257Z" fill="black"/>
<path d="M136.344 379.603C134.738 379.603 133.198 380.431 132.062 381.906C130.926 383.382 130.288 385.382 130.288 387.469H142.4C142.401 386.435 142.245 385.412 141.941 384.457C141.637 383.502 141.191 382.634 140.629 381.903C140.066 381.173 139.398 380.593 138.663 380.199C137.928 379.804 137.14 379.601 136.344 379.603V379.603Z" fill="#407BFF"/>
<path opacity="0.2" d="M140.872 197.231C140.812 197.228 140.755 197.195 140.713 197.139C140.671 197.083 140.648 197.007 140.648 196.929C140.648 188.076 144.592 179.815 148.296 175.036C151.44 170.962 154.84 168.635 157.624 168.635C157.657 168.632 157.689 168.638 157.72 168.651C157.751 168.665 157.78 168.686 157.804 168.714C157.829 168.742 157.849 168.776 157.863 168.814C157.877 168.852 157.886 168.894 157.888 168.936C157.888 169.016 157.864 169.093 157.82 169.149C157.776 169.206 157.717 169.237 157.656 169.237C154.992 169.237 151.712 171.503 148.648 175.472C145.016 180.158 141.136 188.263 141.136 196.94C141.135 196.982 141.127 197.024 141.113 197.062C141.099 197.101 141.079 197.135 141.054 197.162C141.029 197.189 141 197.21 140.969 197.222C140.937 197.233 140.904 197.237 140.872 197.231Z" fill="black"/>
<path opacity="0.2" d="M137.68 196.524C137.651 196.535 137.621 196.535 137.592 196.524C132.04 193.407 126.448 183.743 125.752 177.997C125.747 177.919 125.763 177.842 125.798 177.779C125.834 177.716 125.885 177.671 125.944 177.654C125.974 177.648 126.006 177.65 126.035 177.66C126.065 177.67 126.093 177.688 126.118 177.712C126.143 177.736 126.163 177.767 126.179 177.801C126.194 177.836 126.204 177.874 126.208 177.914C126.872 183.39 132.448 192.991 137.776 195.973C137.822 196.003 137.86 196.052 137.882 196.113C137.905 196.173 137.911 196.242 137.9 196.308C137.889 196.374 137.861 196.433 137.821 196.476C137.782 196.519 137.732 196.543 137.68 196.545V196.524Z" fill="black"/>
<path opacity="0.2" d="M183.36 381.234C183.334 381.244 183.306 381.244 183.28 381.234C179.368 379.28 173.68 380.06 172.08 380.704C172.024 380.717 171.967 380.703 171.918 380.665C171.87 380.627 171.834 380.567 171.817 380.496C171.801 380.426 171.804 380.35 171.827 380.283C171.851 380.216 171.892 380.163 171.944 380.132C173.648 379.447 179.376 378.647 183.44 380.673C183.497 380.703 183.544 380.761 183.569 380.835C183.595 380.908 183.597 380.992 183.576 381.068C183.557 381.12 183.526 381.164 183.487 381.194C183.449 381.223 183.405 381.237 183.36 381.234V381.234Z" fill="black"/>
<path opacity="0.2" d="M145.544 382.637C145.498 382.639 145.453 382.621 145.416 382.585C141.88 379.582 138.56 379.343 136.792 380.049C136.736 380.062 136.679 380.049 136.63 380.01C136.582 379.972 136.546 379.912 136.529 379.842C136.513 379.772 136.516 379.696 136.54 379.629C136.563 379.562 136.604 379.508 136.656 379.478C138.608 378.699 142.008 378.969 145.672 382.086C145.723 382.13 145.758 382.199 145.77 382.277C145.782 382.355 145.77 382.435 145.736 382.502C145.715 382.543 145.687 382.577 145.653 382.6C145.62 382.624 145.582 382.636 145.544 382.637V382.637Z" fill="black"/>
</svg>
